<svg width="24" height="24" viewBox="0 0 24 24" fill="none" xmlns="http://www.w3.org/2000/svg">
<path d="M19.7139 16.6483C19.2922 17.5826 19.0908 17.9991 18.5474 18.8254C17.7905 19.9783 16.7225 21.414 15.3991 21.426C14.2231 21.4371 13.9214 20.6614 12.3254 20.67C10.7302 20.6786 10.3968 21.4397 9.2208 21.4286C7.89738 21.4166 6.8868 20.1206 6.12823 18.9668C4.01109 15.7423 3.78995 11.9588 5.09623 9.94799C6.02452 8.51827 7.48938 7.68256 8.8668 7.68256C10.2691 7.68256 11.1502 8.45142 12.3099 8.45142C13.4345 8.45142 14.1202 7.6817 15.7411 7.6817C16.9668 7.6817 18.2645 8.34856 19.1902 9.50142C16.1594 11.1626 16.6514 15.4903 19.7139 16.6483Z" stroke="#171A1F" stroke-width="2.05714" stroke-miterlimit="10" stroke-linecap="square"/>
<path d="M14.6574 4.67142C15.2146 3.95657 15.6372 2.94771 15.4837 1.91656C14.5734 1.97914 13.5106 2.55771 12.8892 3.31199C12.3252 3.99685 11.8597 5.01171 12.0406 5.99914C13.0332 6.02999 14.0609 5.43685 14.6574 4.67142Z" fill="#171A1F"/>
</svg>
