<svg width="24" height="24" viewBox="0 0 24 24" fill="none" xmlns="http://www.w3.org/2000/svg">
<path d="M20.6294 10.3638L12.0386 10.3638L12.0386 14.0454L16.9076 14.0454C16.1276 16.5 14.2076 17.3184 11.9996 17.3184C11.1441 17.3195 10.301 17.1143 9.54182 16.7201C8.7826 16.3259 8.12968 15.7544 7.63845 15.054C7.14722 14.3537 6.83218 13.5451 6.72005 12.6971C6.60793 11.849 6.70204 10.9864 6.99439 10.1825C7.28673 9.3785 7.7687 8.65694 8.39939 8.07898C9.03007 7.50103 9.79087 7.08373 10.6172 6.86251C11.4436 6.64129 12.3111 6.62267 13.1462 6.80822C13.9813 6.99378 14.7593 7.37804 15.4142 7.9284L18.0896 5.3802C17.0122 4.38785 15.7089 3.67345 14.2928 3.29902C12.8768 2.92459 11.3907 2.90145 9.96365 3.23159C8.5366 3.56173 7.21169 4.23519 6.10393 5.1935C4.99618 6.15181 4.13906 7.36601 3.60699 8.7307C3.07491 10.0954 2.88395 11.5693 3.05069 13.0245C3.21744 14.4798 3.73684 15.8723 4.56381 17.0813C5.39078 18.2902 6.50032 19.2791 7.79613 19.962C9.09194 20.6449 10.5348 21.0012 11.9996 21C16.9622 21 21.4478 17.727 20.6294 10.3638Z" fill="#C71610"/>
</svg>
