<svg width="21" height="20" viewBox="0 0 21 20" fill="none" xmlns="http://www.w3.org/2000/svg">
<path d="M17.6918 8.6365L10.5328 8.6365V11.7045L14.5903 11.7045C13.9403 13.75 12.3403 14.432 10.5003 14.432C9.78743 14.4329 9.08484 14.2619 8.45216 13.9334C7.81949 13.6049 7.27538 13.1286 6.86602 12.545C6.45667 11.9614 6.19413 11.2876 6.1007 10.5809C6.00726 9.87417 6.08568 9.15533 6.32931 8.48537C6.57293 7.81542 6.97457 7.21412 7.50014 6.73249C8.02571 6.25086 8.65971 5.90311 9.34834 5.71876C10.037 5.53441 10.7599 5.51889 11.4558 5.67352C12.1517 5.82815 12.8 6.14837 13.3458 6.607L15.5753 4.4835C14.6775 3.65654 13.5914 3.06121 12.4114 2.74919C11.2313 2.43716 9.9929 2.41787 8.80369 2.69299C7.61448 2.96811 6.51039 3.52933 5.58726 4.32792C4.66413 5.12651 3.94987 6.13834 3.50647 7.27558C3.06307 8.41282 2.90394 9.64109 3.0429 10.8538C3.18185 12.0665 3.61468 13.2269 4.30382 14.2344C4.99297 15.2418 5.91759 16.0659 6.99743 16.635C8.07727 17.2041 9.27968 17.501 10.5003 17.5C14.6358 17.5 18.3738 14.7725 17.6918 8.6365Z" fill="#DB4437"/>
</svg>
