<svg width="20" height="21" viewBox="0 0 20 21" fill="none" xmlns="http://www.w3.org/2000/svg">
<path d="M9.36416 2.33368C9.59958 1.76767 10.4014 1.76768 10.6368 2.33369L12.5732 6.98918C12.6724 7.2278 12.8968 7.39083 13.1544 7.41149L18.1804 7.81441C18.7915 7.86341 19.0392 8.62597 18.5737 9.02475L14.7444 12.305C14.5482 12.4731 14.4624 12.7369 14.5224 12.9882L15.6923 17.8927C15.8346 18.4891 15.1858 18.9603 14.6627 18.6408L10.3597 16.0126C10.1392 15.8779 9.86183 15.8779 9.64133 16.0126L5.33833 18.6408C4.81519 18.9603 4.1665 18.4891 4.30874 17.8927L5.47865 12.9882C5.53861 12.7369 5.4529 12.4731 5.25663 12.305L1.42735 9.02475C0.961789 8.62597 1.20956 7.86341 1.82062 7.81441L6.84662 7.41149C7.10422 7.39083 7.32862 7.2278 7.42787 6.98918L9.36416 2.33368Z" fill="url(#paint0_linear_1_806)"/>
<defs>
<linearGradient id="paint0_linear_1_806" x1="1.18555" y1="1.90918" x2="18.8155" y2="1.90918" gradientUnits="userSpaceOnUse">
<stop offset="0.4999" stop-color="#F3C63F"/>
<stop offset="0.5" stop-color="#F3C63F"/>
</linearGradient>
</defs>
</svg>
