<svg width="20" height="20" viewBox="0 0 20 20" fill="none" xmlns="http://www.w3.org/2000/svg">
<path d="M17.1918 8.6365L10.0328 8.6365V11.7045L14.0903 11.7045C13.4403 13.75 11.8403 14.432 10.0003 14.432C9.28743 14.4329 8.58484 14.2619 7.95216 13.9334C7.31949 13.6049 6.77538 13.1286 6.36602 12.545C5.95667 11.9614 5.69413 11.2876 5.6007 10.5809C5.50726 9.87417 5.58568 9.15533 5.82931 8.48537C6.07293 7.81542 6.47457 7.21412 7.00014 6.73249C7.52571 6.25086 8.15971 5.90311 8.84834 5.71876C9.53696 5.53441 10.2599 5.51889 10.9558 5.67352C11.6517 5.82815 12.3 6.14837 12.8458 6.607L15.0753 4.4835C14.1775 3.65654 13.0914 3.06121 11.9114 2.74919C10.7313 2.43716 9.4929 2.41787 8.30369 2.69299C7.11448 2.96811 6.01039 3.52933 5.08726 4.32792C4.16413 5.12651 3.44987 6.13834 3.00647 7.27558C2.56307 8.41282 2.40394 9.64109 2.5429 10.8538C2.68185 12.0665 3.11468 13.2269 3.80382 14.2344C4.49297 15.2418 5.41759 16.0659 6.49743 16.635C7.57727 17.2041 8.77968 17.501 10.0003 17.5C14.1358 17.5 17.8738 14.7725 17.1918 8.6365Z" fill="#DB4437"/>
</svg>
