<svg width="21" height="20" viewBox="0 0 21 20" fill="none" xmlns="http://www.w3.org/2000/svg">
<path d="M16.4996 13.782C16.2523 14.3742 15.9486 14.9411 15.5926 15.475C15.0036 16.375 14.1736 17.488 13.1436 17.498C12.2296 17.507 11.9946 16.903 10.7536 16.91C9.5126 16.917 9.2536 17.51 8.3396 17.5C7.3106 17.491 6.5236 16.482 5.9346 15.585C4.2876 13.078 4.1146 10.135 5.1346 8.57102C5.44149 8.06041 5.86887 7.6328 6.37931 7.32563C6.88976 7.01845 7.46772 6.84108 8.0626 6.80902C9.1526 6.80902 9.8386 7.40902 10.7406 7.40902C11.6156 7.40902 12.1486 6.80902 13.4096 6.80902C13.9334 6.8328 14.4455 6.97196 14.9093 7.21657C15.3731 7.46117 15.7771 7.80518 16.0926 8.22402C15.5797 8.50793 15.1589 8.93279 14.8799 9.44834C14.6008 9.96389 14.4753 10.5486 14.5181 11.1332C14.5609 11.7179 14.7703 12.278 15.1215 12.7474C15.4726 13.2168 15.9508 13.5759 16.4996 13.782Z" stroke="#171A1F" stroke-linecap="round" stroke-linejoin="round"/>
<path d="M13.0998 4.7C13.4081 4.32667 13.6389 3.89557 13.7785 3.43195C13.9181 2.96832 13.9637 2.4815 13.9128 2C12.9229 2.11725 12.0144 2.60581 11.3708 3.367C11.0549 3.72274 10.8176 4.14113 10.6744 4.59484C10.5312 5.04854 10.4853 5.52736 10.5398 6C11.0366 5.98835 11.5244 5.86553 11.9674 5.64056C12.4104 5.41559 12.7974 5.0942 13.0998 4.7Z" fill="#171A1F"/>
</svg>
