<svg width="20" height="20" viewBox="0 0 20 20" fill="none" xmlns="http://www.w3.org/2000/svg">
<path d="M15.9996 13.782C15.7523 14.3742 15.4486 14.9411 15.0926 15.475C14.5036 16.375 13.6736 17.488 12.6436 17.498C11.7296 17.507 11.4946 16.903 10.2536 16.91C9.0126 16.917 8.7536 17.51 7.8396 17.5C6.8106 17.491 6.0236 16.482 5.4346 15.585C3.7876 13.078 3.6146 10.135 4.6346 8.57102C4.94149 8.06041 5.36887 7.6328 5.87931 7.32563C6.38976 7.01845 6.96772 6.84108 7.5626 6.80902C8.6526 6.80902 9.3386 7.40902 10.2406 7.40902C11.1156 7.40902 11.6486 6.80902 12.9096 6.80902C13.4334 6.8328 13.9455 6.97196 14.4093 7.21657C14.8731 7.46117 15.2771 7.80518 15.5926 8.22402C15.0797 8.50793 14.6589 8.93279 14.3799 9.44834C14.1008 9.96389 13.9753 10.5486 14.0181 11.1332C14.0609 11.7179 14.2703 12.278 14.6215 12.7474C14.9726 13.2168 15.4508 13.5759 15.9996 13.782Z" stroke="#171A1F" stroke-linecap="round" stroke-linejoin="round"/>
<path d="M12.5998 4.7C12.9081 4.32667 13.1389 3.89557 13.2785 3.43195C13.4181 2.96832 13.4637 2.4815 13.4128 2C12.4229 2.11725 11.5144 2.60581 10.8708 3.367C10.5549 3.72274 10.3176 4.14113 10.1744 4.59484C10.0312 5.04854 9.98534 5.52736 10.0398 6C10.5366 5.98835 11.0244 5.86553 11.4674 5.64056C11.9104 5.41559 12.2974 5.0942 12.5998 4.7Z" fill="#171A1F"/>
</svg>
