<svg width="16" height="16" viewBox="0 0 16 16" fill="none" xmlns="http://www.w3.org/2000/svg">
<path d="M4.4 6.8C5.72548 6.8 6.8 5.72548 6.8 4.4C6.8 3.07452 5.72548 2 4.4 2C3.07452 2 2 3.07452 2 4.4C2 5.72548 3.07452 6.8 4.4 6.8Z" stroke="#565D6D" stroke-width="0.8" stroke-linecap="round" stroke-linejoin="round"/>
<path d="M11.5992 6.8C12.9247 6.8 13.9992 5.72548 13.9992 4.4C13.9992 3.07452 12.9247 2 11.5992 2C10.2737 2 9.19922 3.07452 9.19922 4.4C9.19922 5.72548 10.2737 6.8 11.5992 6.8Z" stroke="#565D6D" stroke-width="0.8" stroke-linecap="round" stroke-linejoin="round"/>
<path d="M4.4 14C5.72548 14 6.8 12.9254 6.8 11.6C6.8 10.2745 5.72548 9.19995 4.4 9.19995C3.07452 9.19995 2 10.2745 2 11.6C2 12.9254 3.07452 14 4.4 14Z" stroke="#565D6D" stroke-width="0.8" stroke-linecap="round" stroke-linejoin="round"/>
<path d="M11.5992 14C12.9247 14 13.9992 12.9254 13.9992 11.6C13.9992 10.2745 12.9247 9.19995 11.5992 9.19995C10.2737 9.19995 9.19922 10.2745 9.19922 11.6C9.19922 12.9254 10.2737 14 11.5992 14Z" stroke="#565D6D" stroke-width="0.8" stroke-linecap="round" stroke-linejoin="round"/>
</svg>
