<svg width="16" height="16" viewBox="0 0 16 16" fill="none" xmlns="http://www.w3.org/2000/svg">
<path d="M3.2 4.4C3.86274 4.4 4.4 3.86274 4.4 3.2C4.4 2.53726 3.86274 2 3.2 2C2.53726 2 2 2.53726 2 3.2C2 3.86274 2.53726 4.4 3.2 4.4Z" stroke="white" stroke-width="0.8" stroke-linecap="round" stroke-linejoin="round"/>
<path d="M3.2 9.20005C3.86274 9.20005 4.4 8.66279 4.4 8.00005C4.4 7.33731 3.86274 6.80005 3.2 6.80005C2.53726 6.80005 2 7.33731 2 8.00005C2 8.66279 2.53726 9.20005 3.2 9.20005Z" stroke="white" stroke-width="0.8" stroke-linecap="round" stroke-linejoin="round"/>
<path d="M3.2 14.0001C3.86274 14.0001 4.4 13.4628 4.4 12.8001C4.4 12.1374 3.86274 11.6001 3.2 11.6001C2.53726 11.6001 2 12.1374 2 12.8001C2 13.4628 2.53726 14.0001 3.2 14.0001Z" stroke="white" stroke-width="0.8" stroke-linecap="round" stroke-linejoin="round"/>
<path d="M6.80078 3.6001L14.0008 3.6001" stroke="white" stroke-width="0.8" stroke-linecap="round" stroke-linejoin="round"/>
<path d="M6.80078 8.3999L14.0008 8.3999" stroke="white" stroke-width="0.8" stroke-linecap="round" stroke-linejoin="round"/>
<path d="M6.80078 13.2L14.0008 13.2" stroke="white" stroke-width="0.8" stroke-linecap="round" stroke-linejoin="round"/>
</svg>
