<svg width="21" height="20" viewBox="0 0 21 20" fill="none" xmlns="http://www.w3.org/2000/svg">
<g clip-path="url(#clip0_42_7645)">
<path d="M9.99502 1.83368C10.2304 1.26767 11.0323 1.26768 11.2677 1.83369L13.204 6.48918C13.3033 6.7278 13.5277 6.89083 13.7853 6.91149L18.8113 7.31442C19.4224 7.36341 19.6701 8.12597 19.2045 8.52475L15.3753 11.805C15.179 11.9731 15.0933 12.2369 15.1533 12.4882L16.3232 17.3927C16.4654 17.9891 15.8167 18.4603 15.2936 18.1408L10.9906 15.5126C10.7701 15.3779 10.4927 15.3779 10.2722 15.5126L5.96919 18.1408C5.44605 18.4603 4.79736 17.9891 4.9396 17.3927L6.10951 12.4882C6.16947 12.2369 6.08376 11.9731 5.88749 11.805L2.05821 8.52475C1.59265 8.12597 1.84042 7.36341 2.45148 7.31442L7.47748 6.91149C7.73508 6.89083 7.95948 6.7278 8.05873 6.48918L9.99502 1.83368Z" fill="url(#paint0_linear_42_7645)"/>
</g>
<defs>
<linearGradient id="paint0_linear_42_7645" x1="1.81641" y1="1.40918" x2="19.4463" y2="1.40918" gradientUnits="userSpaceOnUse">
<stop offset="0.4999" stop-color="#F3C63F"/>
<stop offset="0.5" stop-color="#F3C63F"/>
</linearGradient>
<clipPath id="clip0_42_7645">
<rect width="20" height="20" fill="white" transform="translate(0.630859)"/>
</clipPath>
</defs>
</svg>
