<svg width="16" height="16" viewBox="0 0 16 16" fill="none" xmlns="http://www.w3.org/2000/svg">
<path d="M8.00078 9.20005C8.66352 9.20005 9.20078 8.66279 9.20078 8.00005C9.20078 7.33731 8.66352 6.80005 8.00078 6.80005C7.33804 6.80005 6.80078 7.33731 6.80078 8.00005C6.80078 8.66279 7.33804 9.20005 8.00078 9.20005Z" stroke="#9095A1" stroke-width="0.8" stroke-miterlimit="10" stroke-linecap="round" stroke-linejoin="round"/>
<path d="M12.7996 9.20005C13.4624 9.20005 13.9996 8.66279 13.9996 8.00005C13.9996 7.33731 13.4624 6.80005 12.7996 6.80005C12.1369 6.80005 11.5996 7.33731 11.5996 8.00005C11.5996 8.66279 12.1369 9.20005 12.7996 9.20005Z" stroke="#9095A1" stroke-width="0.8" stroke-miterlimit="10" stroke-linecap="round" stroke-linejoin="round"/>
<path d="M3.2 9.20005C3.86274 9.20005 4.4 8.66279 4.4 8.00005C4.4 7.33731 3.86274 6.80005 3.2 6.80005C2.53726 6.80005 2 7.33731 2 8.00005C2 8.66279 2.53726 9.20005 3.2 9.20005Z" stroke="#9095A1" stroke-width="0.8" stroke-miterlimit="10" stroke-linecap="round" stroke-linejoin="round"/>
</svg>
