<svg width="20" height="20" viewBox="0 0 20 20" fill="none" xmlns="http://www.w3.org/2000/svg">
<path d="M18 10C17.9998 8.47124 17.5615 6.97453 16.737 5.68709C15.9126 4.39966 14.7365 3.3754 13.3481 2.73559C11.9596 2.09578 10.4169 1.8672 8.90257 2.07692C7.38823 2.28663 5.9657 2.92587 4.80337 3.91893C3.64104 4.912 2.7876 6.21732 2.34407 7.68035C1.90054 9.14339 1.88551 10.7029 2.30075 12.1742C2.71599 13.6455 3.54411 14.967 4.68708 15.9823C5.83004 16.9976 7.23999 17.6642 8.75 17.903L8.75 12.3125L6.719 12.3125L6.719 10H8.75V8.23753C8.75 6.23253 9.9445 5.12503 11.7715 5.12503C12.3715 5.13335 12.9701 5.18549 13.5625 5.28103V7.25003H12.5535C12.3816 7.22719 12.2067 7.24334 12.0418 7.29728C11.877 7.35121 11.7264 7.44155 11.6012 7.56161C11.476 7.68166 11.3794 7.82834 11.3186 7.99079C11.2578 8.15324 11.2344 8.32728 11.25 8.50003V10L13.469 10L13.114 12.3125H11.25L11.25 17.903C13.1319 17.6053 14.8458 16.6457 16.0832 15.197C17.3206 13.7482 18.0003 11.9053 18 10Z" fill="#335CA6"/>
</svg>
