<svg width="42" height="42" viewBox="0 0 42 42" fill="none" xmlns="http://www.w3.org/2000/svg">
<g clip-path="url(#clip0_1_174)">
<path fill-rule="evenodd" clip-rule="evenodd" d="M21 6.66011C13.5773 6.66011 7.56001 12.6774 7.56001 20.1001H2.76001C2.76001 10.0264 10.9263 1.86011 21 1.86011C31.0737 1.86011 39.24 10.0264 39.24 20.1001H34.44C34.44 12.6774 28.4227 6.66011 21 6.66011Z" fill="#1E2128"/>
<path d="M13.1317 25.6346C12.3444 23.9542 10.9057 22.3801 9.05006 22.3801H2.81006C2.81006 31.9236 10.5466 39.6601 20.0901 39.6601V33.4201C20.0901 31.5644 18.5159 30.1258 16.8356 29.3385C15.2091 28.5765 13.8937 27.2611 13.1317 25.6346Z" fill="#4069E5"/>
<path d="M28.8684 25.6346C29.6557 23.9542 31.0944 22.3801 32.95 22.3801H39.19C39.19 31.9236 31.4535 39.6601 21.91 39.6601V33.4201C21.91 31.5644 23.4841 30.1258 25.1645 29.3385C26.791 28.5765 28.1064 27.2611 28.8684 25.6346Z" fill="#ED7D2D"/>
<path d="M21 24.85C23.6509 24.85 25.8 22.701 25.8 20.05C25.8 17.399 23.6509 15.25 21 15.25C18.349 15.25 16.2 17.399 16.2 20.05C16.2 22.701 18.349 24.85 21 24.85Z" fill="#8353E2"/>
</g>
<defs>
<clipPath id="clip0_1_174">
<rect width="42" height="42" fill="white"/>
</clipPath>
</defs>
</svg>
