<svg width="180" height="180" viewBox="0 0 180 180" fill="none" xmlns="http://www.w3.org/2000/svg">
<g clip-path="url(#clip0_1_1501)">
<mask id="mask0_1_1501" style="mask-type:luminance" maskUnits="userSpaceOnUse" x="0" y="0" width="180" height="180">
<path d="M180 0H0V180H180V0Z" fill="white"/>
</mask>
<g mask="url(#mask0_1_1501)">
<path d="M97.5303 120.881C103.254 120.74 116.461 118.904 121.731 117.154C124.911 116.098 127.582 117.28 127.242 121.165C126.903 125.05 114.735 132.007 104.771 133.622C98.6944 134.607 84.3356 135.987 75.5168 133.622C66.6979 131.257 56.5789 140.8 52.6218 145.868C50.0779 149.035 43.9726 157.438 39.9023 165.714" stroke="black" stroke-width="2.11131" stroke-linecap="round"/>
</g>
<mask id="mask1_1_1501" style="mask-type:luminance" maskUnits="userSpaceOnUse" x="0" y="0" width="180" height="180">
<path d="M180 0H0V180H180V0Z" fill="white"/>
</mask>
<g mask="url(#mask1_1_1501)">
<path d="M98.4141 117.999C104.703 117.084 119.003 114.074 122.793 112.298C126.397 110.609 128.729 112.298 129.365 114.832C129.506 115.535 129.365 117.196 127.669 118.21" stroke="black" stroke-width="2.11131" stroke-linecap="round"/>
</g>
<mask id="mask2_1_1501" style="mask-type:luminance" maskUnits="userSpaceOnUse" x="0" y="0" width="180" height="180">
<path d="M180 0H0V180H180V0Z" fill="white"/>
</mask>
<g mask="url(#mask2_1_1501)">
<path d="M92.4746 112.297C97.5624 110.045 108.586 106.47 111.978 110.186" stroke="black" stroke-width="2.11131" stroke-linecap="round"/>
</g>
<mask id="mask3_1_1501" style="mask-type:luminance" maskUnits="userSpaceOnUse" x="0" y="0" width="180" height="180">
<path d="M180 0H0V180H180V0Z" fill="white"/>
</mask>
<g mask="url(#mask3_1_1501)">
<path d="M96.5059 114.83C97.1418 114.408 105.833 112.719 114.101 109.552C115.868 108.989 119.613 108.75 120.461 112.297" stroke="black" stroke-width="2.11131" stroke-linecap="round"/>
</g>
<mask id="mask4_1_1501" style="mask-type:luminance" maskUnits="userSpaceOnUse" x="0" y="0" width="180" height="180">
<path d="M180 0H0V180H180V0Z" fill="white"/>
</mask>
<g mask="url(#mask4_1_1501)">
<path d="M73.6101 121.165C82.5844 123.206 99.9817 125.472 97.777 118.209C95.6214 111.108 85.319 110.56 80.1059 111.197C79.881 111.224 79.6534 111.16 79.4717 111.025C65.2498 100.438 45.7884 113.411 38.2077 122.01C35.3811 125.388 33.9679 127.288 31 131.933" stroke="black" stroke-width="2.11131" stroke-linecap="round"/>
</g>
<mask id="mask5_1_1501" style="mask-type:luminance" maskUnits="userSpaceOnUse" x="0" y="0" width="180" height="180">
<path d="M180 0H0V180H180V0Z" fill="white"/>
</mask>
<g mask="url(#mask5_1_1501)">
<path d="M71.915 50.0496C71.6424 50.0484 71.5232 50.389 71.7436 50.5495C77.3871 54.6573 89.7046 61.4847 99.7733 59.7795C99.8547 59.7657 99.9382 59.7754 100.014 59.8081L109.358 63.8455" stroke="black" stroke-width="2.11131" stroke-linecap="round"/>
</g>
<mask id="mask6_1_1501" style="mask-type:luminance" maskUnits="userSpaceOnUse" x="0" y="0" width="180" height="180">
<path d="M180 0H0V180H180V0Z" fill="white"/>
</mask>
<g mask="url(#mask6_1_1501)">
<path d="M63.2242 34.8447C62.0936 35.1966 59.8748 36.7871 60.0443 40.3341C60.3154 44.8337 63.7473 47.6787 65.4293 48.8554C67.5492 50.1222 69.2706 50.017 71.0678 50.0461C71.1326 50.0472 72.7511 49.8963 72.8128 49.8766C73.9755 49.5042 75.2817 48.4865 74.8837 46.2436" stroke="black" stroke-width="2.11131" stroke-linecap="round"/>
</g>
<mask id="mask7_1_1501" style="mask-type:luminance" maskUnits="userSpaceOnUse" x="0" y="0" width="180" height="180">
<path d="M180 0H0V180H180V0Z" fill="white"/>
</mask>
<g mask="url(#mask7_1_1501)">
<path d="M67.0386 28.3008C65.4133 28.8638 62.3748 30.961 63.2227 34.8458C64.0707 38.7306 64.7212 39.8483 65.0039 40.4113C66.0059 42.5735 67.6382 43.8213 68.3626 44.1949C68.3851 44.2065 68.4051 44.2188 68.4256 44.2337C69.4142 44.9539 71.9598 45.9449 74.8822 46.2447C75.6831 46.3269 78.3219 46.398 78.91 46.458C81.2419 46.458 82.7259 45.5628 81.8779 41.9258" stroke="black" stroke-width="2.11131" stroke-linecap="round"/>
</g>
<mask id="mask8_1_1501" style="mask-type:luminance" maskUnits="userSpaceOnUse" x="0" y="0" width="180" height="180">
<path d="M180 0H0V180H180V0Z" fill="white"/>
</mask>
<g mask="url(#mask8_1_1501)">
<path d="M70.9377 20.9111C69.3713 20.9111 65.9794 22.6002 67.0394 28.3007C67.8873 32.8611 68.8205 34.9218 70.0924 36.3998C71.3644 37.8777 73.0603 39.5667 75.6042 40.3352L81.8413 41.9162C81.8662 41.9225 81.8916 41.9265 81.9171 41.9282L83.2693 42.018C83.3308 42.0221 83.3918 42.0133 83.4487 41.9896C84.7288 41.4553 86.7629 39.7646 85.2705 36.9571" stroke="black" stroke-width="2.11131" stroke-linecap="round"/>
</g>
<mask id="mask9_1_1501" style="mask-type:luminance" maskUnits="userSpaceOnUse" x="0" y="0" width="180" height="180">
<path d="M180 0H0V180H180V0Z" fill="white"/>
</mask>
<g mask="url(#mask9_1_1501)">
<path d="M122.714 39.1435L115.369 35.5791C115.239 35.5162 115.152 35.3957 115.133 35.253C114.476 30.381 110.584 20.4937 99.8977 18.1655C89.0438 15.8008 81.2426 14.5059 78.6987 14.154C75.9428 13.6614 70.5158 14.0695 70.855 19.6434C70.8815 20.0792 70.9091 20.5015 70.9375 20.9102C71.272 25.7288 72.4241 27.3202 73.908 29.5666C76.2844 33.0527 78.7388 34.5588 79.8437 35.1321C81.8784 36.1877 87.3901 38.6452 87.8142 33.3669V31.2381" stroke="black" stroke-width="2.11131" stroke-linecap="round"/>
</g>
<mask id="mask10_1_1501" style="mask-type:luminance" maskUnits="userSpaceOnUse" x="0" y="0" width="180" height="180">
<path d="M180 0H0V180H180V0Z" fill="white"/>
</mask>
<g mask="url(#mask10_1_1501)">
<path d="M99.899 18.166C96.9311 18.3771 87.2219 19.8973 82.3037 20.9107C77.3855 21.9242 78.5586 26.2594 79.7598 28.3003C82.1483 31.6702 91.1396 31.1937 93.2238 29.8414C93.4187 29.7149 93.6912 29.6841 93.8766 29.8242C99.1991 33.8457 100.767 33.3675 107.828 33.3675" stroke="black" stroke-width="2.11131" stroke-linecap="round"/>
</g>
<mask id="mask11_1_1501" style="mask-type:luminance" maskUnits="userSpaceOnUse" x="0" y="0" width="180" height="180">
<path d="M180 0H0V180H180V0Z" fill="white"/>
</mask>
<g mask="url(#mask11_1_1501)">
<path d="M85.2695 40.6025V63.4047" stroke="black" stroke-width="2.11131" stroke-linecap="round"/>
</g>
<mask id="mask12_1_1501" style="mask-type:luminance" maskUnits="userSpaceOnUse" x="0" y="0" width="180" height="180">
<path d="M180 0H0V180H180V0Z" fill="white"/>
</mask>
<g mask="url(#mask12_1_1501)">
<path d="M90.1393 62.9332H81.8217C79.3216 62.9332 77.2949 64.9599 77.2949 67.46C77.2949 69.9601 79.3216 71.9868 81.8217 71.9868H90.1393C92.6394 71.9868 94.6661 69.9601 94.6661 67.46C94.6661 64.9599 92.6394 62.9332 90.1393 62.9332Z" stroke="black" stroke-width="4.11526"/>
</g>
<mask id="mask13_1_1501" style="mask-type:luminance" maskUnits="userSpaceOnUse" x="0" y="0" width="180" height="180">
<path d="M180 0H0V180H180V0Z" fill="white"/>
</mask>
<g mask="url(#mask13_1_1501)">
<path d="M85.9727 73.2168V102.847" stroke="black" stroke-width="4.11526" stroke-linecap="round"/>
</g>
<mask id="mask14_1_1501" style="mask-type:luminance" maskUnits="userSpaceOnUse" x="0" y="0" width="180" height="180">
<path d="M180 0H0V180H180V0Z" fill="white"/>
</mask>
<g mask="url(#mask14_1_1501)">
<path d="M133.319 77.1655L109.152 63.6532C106.043 58.0934 103.768 45.8761 117.844 40.64C130.769 35.8319 143.065 41.8887 149.001 45.2669" stroke="black" stroke-width="2.11131" stroke-linecap="round"/>
</g>
<mask id="mask15_1_1501" style="mask-type:luminance" maskUnits="userSpaceOnUse" x="0" y="0" width="180" height="180">
<path d="M180 0H0V180H180V0Z" fill="white"/>
</mask>
<g mask="url(#mask15_1_1501)">
<path d="M73.984 88.5537H84.3274C85.2366 88.5537 85.9736 89.2907 85.9736 90.1998V99.2534C85.9736 100.163 85.2366 100.899 84.3274 100.899H77.7028C76.7937 100.899 76.0567 100.163 76.0567 99.2534V98.0188C76.0567 97.1097 76.7937 96.3727 77.7028 96.3727H77.922C78.7175 96.3727 79.3623 95.7278 79.3623 94.9324C79.3623 94.1369 78.7175 93.492 77.922 93.492H73.984C73.0749 93.492 72.3379 92.755 72.3379 91.8459V90.1998C72.3379 89.2907 73.0749 88.5537 73.984 88.5537Z" fill="black"/>
</g>
</g>
<defs>
<clipPath id="clip0_1_1501">
<rect width="180" height="180" fill="white"/>
</clipPath>
</defs>
</svg>
