<svg width="353" height="356" viewBox="0 0 353 356" fill="none" xmlns="http://www.w3.org/2000/svg">
<g clip-path="url(#clip0_1_1609)">
<path d="M13.3982 149.65C8.10367 161.553 5.2213 174.39 4.91652 187.416C4.61174 200.441 6.89013 213.4 11.6235 225.538C16.355 237.675 23.4466 248.755 32.484 258.131C41.5233 267.507 52.3317 274.997 64.2812 280.166" stroke="#4069E5" stroke-width="1.3944" stroke-linecap="round" stroke-linejoin="round"/>
<path d="M88.457 92.2329C70.1388 95.0248 52.9876 102.953 38.9864 115.1" stroke="#4069E5" stroke-width="1.3944" stroke-linecap="round" stroke-linejoin="round"/>
<path d="M147.559 101.417C139.014 97.1395 129.891 94.1393 120.476 92.5128" stroke="#4069E5" stroke-width="1.3944" stroke-linecap="round" stroke-linejoin="round"/>
<path d="M206.344 268.248L167.078 354.976" stroke="#4069E5" stroke-width="1.3944" stroke-linecap="round" stroke-linejoin="round"/>
<path d="M227.277 221.553L282.68 99.2708C285.681 92.7608 281.444 87.0078 274.347 87.9248L178.16 100.506C172.568 101.239 167.253 103.372 162.705 106.708C158.156 110.044 154.523 114.475 152.142 119.591L43.3141 354.718" stroke="#4069E5" stroke-width="1.3944" stroke-linecap="round" stroke-linejoin="round"/>
<path d="M208.095 210.288C220.345 218.562 233.673 225.112 247.705 229.755C254.586 230.745 261.518 231.345 268.467 231.557" stroke="#4069E5" stroke-width="1.3944" stroke-linecap="round" stroke-linejoin="round"/>
<path d="M261.696 246.898L275.545 217.069C276.703 214.592 278.796 212.674 281.365 211.74C283.934 210.807 286.768 210.931 289.245 212.086L330.163 231.205C332.64 232.364 334.555 234.459 335.489 237.029C336.423 239.601 336.299 242.438 335.144 244.917L310.708 297.507C309.55 299.984 307.457 301.902 304.888 302.836C302.319 303.77 299.485 303.645 297.008 302.49L256.506 283.581" stroke="#4069E5" stroke-width="1.3944" stroke-linecap="round" stroke-linejoin="round"/>
<path d="M310.053 221.594C310.053 221.594 337.569 219.061 348.86 211.028C360.152 202.994 350.774 183.5 336.255 193.851C321.503 204.36 310.053 221.594 310.053 221.594Z" stroke="#4069E5" stroke-width="1.3944" stroke-linecap="round" stroke-linejoin="round"/>
<path d="M309.944 221.573C309.944 221.573 292.835 199.876 290.877 186.125C288.918 172.374 309.496 165.809 311.988 183.434C314.545 201.398 309.944 221.573 309.944 221.573Z" stroke="#4069E5" stroke-width="1.3944" stroke-linecap="round" stroke-linejoin="round"/>
<path d="M208.496 208.182L206.745 202.602C206.745 202.602 223.231 213.805 220.198 189.701C218.022 172.403 208.975 180.773 206.881 187.136C206.39 188.624 205.792 189.095 204.279 186.838C201.562 182.808 196.552 188.213 202.407 193.765C203.532 194.833 203.102 202.766 196.368 208.539C192.093 212.207 178.854 214.759 159.681 209.283" stroke="#4069E5" stroke-width="1.3944" stroke-linecap="round" stroke-linejoin="round"/>
<path d="M209.643 204.14C208.54 208.901 206.966 213.542 204.946 217.993" stroke="#4069E5" stroke-width="1.3944" stroke-linecap="round" stroke-linejoin="round"/>
<path d="M199.308 205.692C203.583 219.368 216.153 234.565 226.004 246.935C240.37 248.169 254.826 247.836 269.119 245.944" stroke="#4069E5" stroke-width="1.3944" stroke-linecap="round" stroke-linejoin="round"/>
<path d="M145.833 237.076C151.958 241.942 159.38 244.892 167.173 245.554C174.965 246.216 182.778 244.561 189.635 240.796C194.595 250.104 200.109 259.104 206.145 267.751C208.14 270.761 211.106 272.993 214.549 274.075C233.176 279.8 252.326 283.66 271.717 285.596" stroke="#4069E5" stroke-width="1.3944" stroke-linecap="round" stroke-linejoin="round"/>
<path d="M162.925 245.003C156.285 255.64 149.231 262.057 145.304 260.235C133.156 254.593 161.424 193.394 173.765 199.093C176.52 200.367 177.155 205.383 175.996 212.347" stroke="#4069E5" stroke-width="1.3944" stroke-linecap="round" stroke-linejoin="round"/>
<path d="M51.4409 118.675C51.0878 129.56 49.746 168.895 49.746 172.96C55.9605 173.914 105.007 185.717 107.797 186.212" stroke="#4069E5" stroke-width="1.3944" stroke-linecap="round" stroke-linejoin="round"/>
<path d="M87.6855 229.26C13.2139 203.034 14.8456 204.273 13.3495 183.811C12.3999 170.771 13.9498 133.379 14.8679 118.678" stroke="#4069E5" stroke-width="1.3944" stroke-linecap="round" stroke-linejoin="round"/>
<path d="M126.346 99.8324C120.979 109.304 99.5848 144.716 97.6725 148.285C99.7167 149.805 109.077 159.949 116.814 167.23" stroke="#4069E5" stroke-width="1.3944" stroke-linecap="round" stroke-linejoin="round"/>
<path d="M69.901 177.329C55.3181 154.745 58.1485 149.13 62.6532 139.726C68.4886 127.573 87.7249 93.1458 94.8574 81.5543" stroke="#4069E5" stroke-width="1.3944" stroke-linecap="round" stroke-linejoin="round"/>
<path d="M118.371 19.7487C124.657 31.0221 131.224 56.8929 131.752 68.6276C129.881 71.6296 128.08 74.5982 126.35 77.5333C121.345 73.1169 115.686 69.504 109.576 66.8234C109.546 63.5572 108.591 48.5024 118.371 19.7487Z" stroke="#4069E5" stroke-width="1.3944" stroke-linecap="round" stroke-linejoin="round"/>
<path d="M282.873 91.7828C280.958 87.3008 277.637 83.5646 273.413 81.1388C269.188 78.713 264.29 77.7294 259.457 78.3369L165.142 90.4938C161.055 91.0183 157.169 92.5711 153.846 95.0071C150.522 97.4419 147.87 100.681 146.136 104.422L30.2812 354.711" stroke="#4069E5" stroke-width="1.3944" stroke-linecap="round" stroke-linejoin="round"/>
<path d="M263.896 102.634C262.595 105.461 263.049 108.465 264.92 109.349C266.792 110.232 269.405 108.642 270.711 105.815C272.017 102.988 271.566 99.9688 269.687 99.1002C267.808 98.2315 265.197 99.807 263.896 102.634Z" stroke="#4069E5" stroke-width="1.3944" stroke-linecap="round" stroke-linejoin="round"/>
<path d="M322.945 117.733L313.518 138.16" stroke="#4069E5" stroke-width="1.3944" stroke-linecap="round" stroke-linejoin="round"/>
<path d="M308.044 123.211L328.418 132.682" stroke="#4069E5" stroke-width="1.3944" stroke-linecap="round" stroke-linejoin="round"/>
<path d="M50.75 132.798C38.8246 136.717 26.6187 136.332 14.0596 132.798" stroke="#4069E5" stroke-width="1.3944" stroke-linecap="round" stroke-linejoin="round"/>
<path d="M119.07 112.102C106.818 109.763 95.7864 103.162 87.9291 93.467" stroke="#4069E5" stroke-width="1.3944" stroke-linecap="round" stroke-linejoin="round"/>
<path d="M187.381 17.352L211.781 27.6025L190.1 12.4044L195.714 2.19116C195.898 1.85941 196.159 1.57665 196.475 1.36656C196.791 1.15646 197.152 1.02516 197.528 0.983625C197.906 0.942095 198.287 0.991567 198.641 1.12787C198.995 1.26417 199.311 1.48337 199.563 1.76708L228.907 34.4584C229.23 34.8256 229.433 35.2837 229.486 35.7703C229.539 36.2569 229.442 36.7481 229.207 37.177C228.971 37.6061 228.609 37.9519 228.17 38.1673C227.73 38.3829 227.236 38.4574 226.753 38.3812L183.426 31.0658C183.053 31.005 182.701 30.856 182.398 30.6309C182.095 30.4059 181.851 30.1114 181.685 29.7724C181.518 29.4333 181.437 29.0592 181.444 28.6818C181.452 28.3043 181.551 27.9341 181.731 27.6025L187.381 17.352Z" stroke="#4069E5" stroke-width="1.3944" stroke-linecap="round" stroke-linejoin="round"/>
<path d="M38.252 291.276C21.2309 300.429 17.6646 274.311 0.645359 283.464" stroke="#4069E5" stroke-width="1.3944" stroke-linecap="round" stroke-linejoin="round"/>
<path d="M284.079 243.792C290.855 242.203 297.346 239.583 303.325 236.017C306.926 234.038 308.277 236.028 304.772 239.127C301.527 241.882 298 244.288 294.25 246.303" stroke="#4069E5" stroke-width="1.3944" stroke-linecap="round" stroke-linejoin="round"/>
<path d="M297.505 244.468C301.325 243.246 305.064 241.783 308.698 240.086C312.329 238.169 313.391 240.644 309.687 243.479C305.192 246.544 300.471 249.263 295.563 251.609" stroke="#4069E5" stroke-width="1.3944" stroke-linecap="round" stroke-linejoin="round"/>
<path d="M300.932 248.934C303.702 248.291 306.437 247.5 309.123 246.566C312.92 245.142 313.71 247.794 309.724 250.065C305.507 252.258 301.113 254.09 296.588 255.543" stroke="#4069E5" stroke-width="1.3944" stroke-linecap="round" stroke-linejoin="round"/>
<path d="M265.616 269.948C266.605 270.266 283.944 265.497 294.148 261.537C298.237 259.946 302.511 258.349 306.507 256.377C310.528 254.391 310.29 252.404 306.401 253.303C304.99 253.628 303.329 253.833 300.61 254.186" stroke="#4069E5" stroke-width="1.3944" stroke-linecap="round" stroke-linejoin="round"/>
<path d="M277.407 267.004C277.901 277.217 275.887 285.409 272.744 285.664C264.881 286.302 261.78 247.301 269.602 245.941C275.299 244.669 280.494 241.742 284.538 237.529C292.282 229.056 294.709 230.885 287.362 242.724" stroke="#4069E5" stroke-width="1.3944" stroke-linecap="round" stroke-linejoin="round"/>
<path d="M190.317 303.717C193.64 305.218 196.454 307.656 198.412 310.733C200.37 313.809 201.389 317.393 201.342 321.041C201.296 324.688 200.187 328.244 198.15 331.271C196.115 334.297 193.241 336.663 189.881 338.078C186.521 339.494 182.82 339.895 179.235 339.237C175.649 338.579 172.334 336.886 169.695 334.369C167.058 331.851 165.21 328.618 164.381 325.064C163.551 321.511 163.777 317.793 165.028 314.367C165.916 311.949 167.292 309.739 169.068 307.877C170.845 306.014 172.986 304.537 175.359 303.538C177.731 302.539 180.283 302.039 182.857 302.071C185.43 302.1 187.969 302.662 190.317 303.717Z" stroke="#4069E5" stroke-width="1.3944" stroke-linecap="round" stroke-linejoin="round"/>
<path d="M100.806 81.8553C97.6632 80.8304 95.4462 80.6574 94.9091 81.5726C93.4224 84.1096 104.214 91.2446 106.745 92.7977C110.09 94.8437 124.53 102.871 126.336 99.7373C127.136 98.3516 123.83 94.8604 118.427 91.079" stroke="#4069E5" stroke-width="1.3944" stroke-linecap="round" stroke-linejoin="round"/>
<path d="M109.533 66.8957C115.64 69.5471 121.289 73.1499 126.271 77.5702C122.352 84.2142 118.256 91.1482 115.112 97.2862C108.979 94.4739 103.255 90.8447 98.0926 86.4982L109.533 66.8957Z" stroke="#4069E5" stroke-width="1.3944" stroke-linecap="round" stroke-linejoin="round"/>
<path d="M13.1464 50.0296C21.8679 57.557 37.6884 82.6856 40.6191 91.768C40.0895 96.1502 39.6658 99.2601 39.3833 101.911C32.8807 102.78 26.2834 102.649 19.8199 101.522L19.8905 98.624C12.3343 73.9213 12.0518 63.3174 13.1464 50.0296Z" stroke="#4069E5" stroke-width="1.3944" stroke-linecap="round" stroke-linejoin="round"/>
<path d="M19.8331 101.59C26.2966 102.717 32.8939 102.848 39.3965 101.979C38.7423 108.709 38.6364 115.482 39.0787 122.23C32.4795 122.783 25.8357 122.413 19.3388 121.135C19.8275 101.398 19.7365 104.93 19.8331 101.59Z" stroke="#4069E5" stroke-width="1.3944" stroke-linecap="round" stroke-linejoin="round"/>
<path d="M56.6837 81.5828C57.2598 82.0266 57.9549 82.2894 58.6797 82.3382C59.4044 82.3869 60.1292 82.2191 60.7592 81.8562C61.3892 81.4934 61.8984 80.9515 62.2199 80.2994C62.5433 79.6473 62.6641 78.9141 62.5711 78.1926C62.4764 77.4709 62.1716 76.7935 61.694 76.2457C61.2145 75.698 60.5845 75.3044 59.8821 75.115C59.1814 74.9257 58.4381 74.9489 57.7486 75.1816C57.061 75.4145 56.457 75.8466 56.0129 76.4232C55.4238 77.1982 55.1617 78.1749 55.2881 79.1412C55.4145 80.1073 55.9162 80.9848 56.6837 81.5828Z" stroke="#4069E5" stroke-width="1.3944" stroke-linecap="round" stroke-linejoin="round"/>
<path d="M169.716 171.507C169.88 172.651 170.413 173.71 171.236 174.521C172.06 175.331 173.126 175.849 174.271 175.995C173.145 176.536 172.247 177.459 171.74 178.601C171.233 179.741 171.147 181.029 171.498 182.226C171.852 183.426 172.619 184.46 173.664 185.145C174.71 185.827 175.962 186.117 177.202 185.961C176.767 186.516 176.449 187.152 176.267 187.832C176.085 188.511 176.042 189.222 176.143 189.919C176.237 190.604 176.466 191.262 176.815 191.859C177.165 192.454 177.628 192.977 178.179 193.394C178.73 193.81 179.358 194.114 180.027 194.288C180.695 194.461 181.391 194.502 182.075 194.407C182.575 194.337 183.063 194.195 183.522 193.983C183.335 194.686 183.286 195.417 183.381 196.139C183.511 197.108 183.91 198.021 184.531 198.777C185.152 199.53 185.972 200.095 186.898 200.408C187.824 200.72 188.818 200.767 189.768 200.544C190.72 200.32 191.59 199.835 192.279 199.143C192.274 199.297 192.286 199.452 192.314 199.602C192.512 200.983 193.246 202.229 194.358 203.068C195.468 203.908 196.867 204.277 198.246 204.091C199.272 203.955 200.232 203.512 201.001 202.818C203.366 198.366 203.091 194.262 202.487 193.665C196.726 188.018 201.644 182.708 204.361 186.739C205.487 188.413 206.353 188.995 206.942 187.152C208.977 180.785 217.873 172.303 220.285 189.637C220.9 193.016 220.876 196.481 220.215 199.852C220.908 199.283 221.444 198.544 221.771 197.709C222.099 196.874 222.207 195.968 222.086 195.079C222.057 194.863 222.011 194.651 221.945 194.443C222.893 194.921 223.967 195.094 225.017 194.938C226.392 194.733 227.632 193.996 228.471 192.886C229.31 191.776 229.679 190.381 229.501 189C229.384 188.204 229.095 187.442 228.654 186.768C229.087 186.804 229.521 186.804 229.954 186.768C231.011 186.625 231.999 186.162 232.786 185.442C233.573 184.722 234.122 183.778 234.36 182.738C234.598 181.698 234.513 180.61 234.117 179.619C233.721 178.627 233.033 177.781 232.144 177.191C233.367 176.95 234.467 176.283 235.244 175.306C236.022 174.331 236.428 173.11 236.39 171.862C236.352 170.613 235.872 169.419 235.036 168.493C234.2 167.566 233.063 166.967 231.826 166.801C232.948 166.263 233.843 165.342 234.351 164.205C234.86 163.067 234.947 161.786 234.6 160.59C234.252 159.393 233.492 158.359 232.453 157.672C231.415 156.984 230.166 156.688 228.93 156.835C229.585 156.013 229.978 155.014 230.059 153.965C230.139 152.917 229.904 151.869 229.385 150.956C228.865 150.043 228.083 149.307 227.141 148.843C226.199 148.379 225.139 148.208 224.099 148.352C223.608 148.418 223.131 148.561 222.686 148.776C222.896 148.066 222.956 147.32 222.863 146.585C222.772 145.899 222.545 145.237 222.197 144.639C221.848 144.041 221.385 143.519 220.833 143.101C220.282 142.684 219.652 142.38 218.982 142.208C218.313 142.035 217.616 141.997 216.931 142.097C215.826 142.259 214.8 142.766 214 143.546C213.939 142.339 213.464 141.189 212.656 140.292C211.847 139.393 210.754 138.802 209.561 138.615C208.368 138.429 207.147 138.659 206.104 139.267C205.06 139.875 204.257 140.825 203.831 141.955C201.952 136.145 193.156 137.737 193.238 143.652C192.515 142.755 191.518 142.121 190.4 141.845C189.282 141.57 188.106 141.667 187.049 142.124C185.992 142.58 185.114 143.371 184.548 144.374C183.982 145.378 183.76 146.539 183.916 147.681C183.943 147.908 183.99 148.133 184.058 148.352C183.119 147.882 182.06 147.709 181.021 147.857C179.64 148.054 178.394 148.79 177.552 149.904C176.711 151.017 176.345 152.419 176.531 153.802C176.633 154.608 176.936 155.376 177.414 156.034C176.99 155.996 176.564 156.007 176.143 156.067C174.767 156.273 173.528 157.009 172.688 158.12C171.85 159.23 171.48 160.626 171.658 162.006C171.761 162.75 172.023 163.464 172.424 164.098C172.825 164.732 173.361 165.272 173.989 165.682C172.66 165.907 171.471 166.64 170.673 167.729C169.876 168.816 169.532 170.171 169.716 171.507Z" stroke="#4069E5" stroke-width="1.3944" stroke-linecap="round" stroke-linejoin="round"/>
<path d="M314.439 223.772L306.389 241.088" stroke="#4069E5" stroke-width="1.3944" stroke-linecap="round" stroke-linejoin="round"/>
<path d="M297.438 260.228L281.193 295.146" stroke="#4069E5" stroke-width="1.3944" stroke-linecap="round" stroke-linejoin="round"/>
<path d="M305.002 219.384L295.398 240.023" stroke="#4069E5" stroke-width="1.3944" stroke-linecap="round" stroke-linejoin="round"/>
<path d="M283.693 265.129L275.996 281.668" stroke="#4069E5" stroke-width="1.3944" stroke-linecap="round" stroke-linejoin="round"/>
<path d="M274.76 284.215L271.723 290.79" stroke="#4069E5" stroke-width="1.3944" stroke-linecap="round" stroke-linejoin="round"/>
<path d="M38.9246 114.954C42.03 115.167 52.491 116.309 51.1306 119.086C49.7089 121.975 35.8917 122.487 32.3905 122.477C18.4153 122.442 8.34096 118.595 19.5025 115.978" stroke="#4069E5" stroke-width="1.3944" stroke-linecap="round" stroke-linejoin="round"/>
<path d="M189.545 240.731C188.148 237.962 186.897 235.122 185.795 232.222V242.576" stroke="#4069E5" stroke-width="1.3944" stroke-linecap="round" stroke-linejoin="round"/>
</g>
<defs>
<clipPath id="clip0_1_1609">
<rect width="353" height="356" fill="white"/>
</clipPath>
</defs>
</svg>
