<svg width="374" height="340" viewBox="0 0 374 340" fill="none" xmlns="http://www.w3.org/2000/svg">
<g clip-path="url(#clip0_1_1351)">
<path d="M17.6187 122.709L60.0723 167.472L43.2398 93.4248L0.786212 48.6617L17.6187 122.709Z" stroke="#4069E5" stroke-width="1.4694" stroke-linecap="round" stroke-linejoin="round"/>
<path d="M78.2044 125.106L88.222 134.296C84.7077 135.04 81.2934 136.201 78.0554 137.757C76.6834 138.341 75.4232 139.159 74.3315 140.176C72.8046 141.924 80.9954 139.431 85.0193 138.985H85.0566C84.2432 139.413 83.5023 139.965 82.8594 140.622C81.5384 142.132 91.6422 138.715 92.5418 139.357C88.6689 141.106 82.6732 144.417 81.2209 146.995C79.5078 150.083 88.2965 143.942 93.9942 143.756C90.3819 145.43 86.4344 147.776 85.0193 150.381C83.0828 153.906 90.084 147.443 98.4257 147.181H98.463C90.4936 152.018 86.7696 155.994 98.0906 151.088C100.166 150.16 102.381 149.582 104.645 149.376L127.398 170.167L60.2175 167.562L50.3489 124.101L78.2044 125.106Z" stroke="#4069E5" stroke-width="1.4694" stroke-linecap="round" stroke-linejoin="round"/>
<path d="M171.08 35.8256C170.921 34.9242 171.09 33.9957 171.554 33.2065C172.017 32.4172 172.748 31.8186 173.612 31.5172C173.055 31.0031 172.661 30.3376 172.477 29.6024C172.293 28.8675 172.328 28.0949 172.579 27.3795C172.828 26.6643 173.283 26.0374 173.883 25.576C174.484 25.1146 175.208 24.8386 175.964 24.7822C175.656 24.1264 175.535 23.3978 175.617 22.6777C175.698 21.9576 175.978 21.2741 176.425 20.7035C176.872 20.1328 177.467 19.697 178.148 19.445C178.828 19.1928 179.565 19.134 180.276 19.2752C180.184 18.5531 180.298 17.8197 180.603 17.1588C180.909 16.4978 181.393 15.9357 182.003 15.5364C182.612 15.1371 183.322 14.9168 184.049 14.9001C184.778 14.8835 185.496 15.0715 186.123 15.4426C186.256 14.701 186.599 14.0132 187.114 13.4619C187.628 12.9106 188.291 12.5193 189.022 12.3346C189.753 12.15 190.521 12.1801 191.235 12.4212C191.95 12.6623 192.58 13.1041 193.049 13.6938C193.404 12.9835 193.959 12.3918 194.646 11.9911C195.332 11.5904 196.12 11.3981 196.914 11.4375C197.707 11.4771 198.473 11.7465 199.116 12.2134C199.758 12.6801 200.251 13.3238 200.535 14.0659C200.984 13.5919 201.547 13.2386 202.169 13.0387C202.792 12.8389 203.455 12.7986 204.097 12.922C204.739 13.0453 205.34 13.3279 205.843 13.7443C206.348 14.1605 206.739 14.6967 206.981 15.3036C206.917 14.3731 207.12 13.4439 207.567 12.6251C208.014 11.8061 208.685 11.1318 209.503 10.6812C210.32 10.2307 211.248 10.0227 212.18 10.0817C213.111 10.1408 214.007 10.4646 214.76 11.0147C215.173 10.0631 215.867 9.25995 216.749 8.71277C217.63 8.16579 218.658 7.90082 219.695 7.95331C220.731 8.00599 221.727 8.37358 222.549 9.00712C223.372 9.64066 223.98 10.5098 224.294 11.4984C225.146 10.9833 226.136 10.7415 227.13 10.8055C228.125 10.8696 229.075 11.2364 229.854 11.8564C230.633 12.4766 231.204 13.3205 231.488 14.2744C231.772 15.2282 231.757 16.2463 231.446 17.1915C232.442 17.3043 233.381 17.7214 234.132 18.3863C234.884 19.051 235.412 19.9309 235.644 20.9064C235.877 21.8816 235.803 22.9049 235.432 23.8369C235.062 24.7687 234.413 25.5638 233.574 26.1139C234.36 26.7496 234.929 27.6131 235.202 28.5854C235.476 29.5578 235.44 30.591 235.101 31.5424C234.762 32.494 234.136 33.3167 233.309 33.8974C232.482 34.4781 231.494 34.7877 230.483 34.7838C230.686 35.754 230.588 36.7629 230.201 37.6755C229.815 38.5884 229.158 39.3613 228.321 39.8913C227.483 40.4214 226.502 40.6831 225.511 40.6414C224.52 40.5996 223.566 40.2567 222.775 39.6582C222.461 40.461 221.935 41.1627 221.252 41.6881C220.569 42.2134 219.754 42.5422 218.898 42.6389C219.056 43.1945 219.087 43.7783 218.991 44.3476C218.895 44.9171 218.673 45.458 218.342 45.9312C218.011 46.4045 217.579 46.7984 217.076 47.0843C216.574 47.37 216.015 47.5408 215.438 47.5839C215.75 48.2419 215.871 48.9738 215.786 49.6968C215.702 50.4196 215.418 51.1047 214.964 51.674C214.51 52.2435 213.907 52.6745 213.22 52.9184C212.534 53.1622 211.793 53.2092 211.081 53.0537C211.167 53.7771 211.048 54.5102 210.737 55.1692C210.427 55.8284 209.938 56.3873 209.325 56.7825C208.713 57.1779 208.002 57.3935 207.273 57.4055C206.544 57.4172 205.827 57.2245 205.201 56.8491C205.068 57.5915 204.723 58.2795 204.207 58.83C203.691 59.3805 203.027 59.7698 202.294 59.9508C201.562 60.1319 200.791 60.0969 200.078 59.8503C199.365 59.6036 198.738 59.1557 198.275 58.5607C197.805 59.2336 197.197 59.7976 196.489 60.215C195.783 60.6321 194.995 60.893 194.178 60.9793C192.931 58.7276 192.086 56.2755 191.683 53.7333C191.269 51.1448 191.753 48.4926 193.055 46.2169C198.604 44.3936 196.109 37.882 192.348 40.4122C190.56 41.6401 189.882 41.5618 189.741 40.375C189.73 40.0321 189.627 39.6986 189.442 39.4095C189.258 39.1205 188.997 38.887 188.69 38.7339C188.359 39.4318 187.829 40.0162 187.166 40.4138C186.505 40.8115 185.739 41.0044 184.966 40.9688C184.194 40.933 183.449 40.6699 182.828 40.2127C182.205 39.7556 181.73 39.1246 181.466 38.399C181.105 38.7797 180.672 39.0842 180.192 39.2946C179.712 39.5051 179.194 39.6169 178.671 39.624C178.146 39.6308 177.626 39.5327 177.14 39.3349C176.654 39.1373 176.213 38.8445 175.843 38.4734C174.921 40.6421 174.222 42.8988 173.757 45.2083C173.199 44.8936 172.724 44.4465 172.379 43.9062C172.032 43.3659 171.825 42.749 171.774 42.1098C171.723 41.4703 171.828 40.8282 172.083 40.2397C172.338 39.651 172.734 39.134 173.236 38.7339C172.675 38.4497 172.189 38.039 171.815 37.5342C171.44 37.0295 171.188 36.4445 171.08 35.8256Z" stroke="#4069E5" stroke-width="1.4694" stroke-linecap="round" stroke-linejoin="round"/>
<path d="M174.332 58.8633L63.1706 40.1841" stroke="#4069E5" stroke-width="1.4694" stroke-linecap="round" stroke-linejoin="round"/>
<path d="M356.998 89.4561L195.004 62.2931" stroke="#4069E5" stroke-width="1.4694" stroke-linecap="round" stroke-linejoin="round"/>
<path d="M185.729 76.3693L152.399 106.286" stroke="#4069E5" stroke-width="1.4694" stroke-linecap="round" stroke-linejoin="round"/>
<path d="M152.226 109.57C151.779 107.895 151.777 106.701 152.375 106.295C152.931 105.919 153.943 106.252 155.205 107.151C157.096 108.643 158.807 110.352 160.301 112.243" stroke="#4069E5" stroke-width="1.4694" stroke-linecap="round" stroke-linejoin="round"/>
<path d="M291.802 153.684C304.389 143.675 305.431 143.377 315.412 132.474C336.49 135.451 359.688 142.484 369.52 147.135C354.513 152.801 338.441 155.087 322.448 153.833L305.355 169.2" stroke="#4069E5" stroke-width="1.4694" stroke-linecap="round" stroke-linejoin="round"/>
<path d="M196.883 76.4487L161.765 107.928" stroke="#4069E5" stroke-width="1.4694" stroke-linecap="round" stroke-linejoin="round"/>
<path d="M178.842 133.277L201.559 114.04L187.801 135.429" stroke="#4069E5" stroke-width="1.4694" stroke-linecap="round" stroke-linejoin="round"/>
<path d="M97.6035 137.484C96.2315 137.782 83.6679 142.169 81.0317 146.861C79.2677 149.985 88.1818 143.773 93.954 143.587" stroke="#4069E5" stroke-width="1.4694" stroke-linecap="round" stroke-linejoin="round"/>
<path d="M98.834 141.583C95.3334 142.848 87.0367 146.349 84.869 150.29C82.909 153.866 89.965 147.313 98.4243 147.052" stroke="#4069E5" stroke-width="1.4694" stroke-linecap="round" stroke-linejoin="round"/>
<path d="M99.8798 146.276C91.0167 151.448 86.1324 156.237 98.1668 151.039C104.384 148.354 149.715 146.983 149.715 146.983C153.694 146.572 157.492 145.121 160.73 142.775L178.68 129.156" stroke="#4069E5" stroke-width="1.4694" stroke-linecap="round" stroke-linejoin="round"/>
<path d="M164.508 108.798L146.26 124.984C146.26 124.984 100.529 133.542 97.0289 134.541C93.5284 135.54 85.1455 137.663 82.6915 140.458C81.3862 141.944 88.5715 139.379 92.9325 139.155" stroke="#4069E5" stroke-width="1.4694" stroke-linecap="round" stroke-linejoin="round"/>
<path d="M161.612 111.213C161.165 109.539 161.163 108.344 161.761 107.939C162.317 107.563 163.329 107.897 164.591 108.794C169.744 112.459 177.401 123.817 179.003 130.041C179.395 131.569 179.324 132.945 178.817 133.278C178.229 133.67 176.545 133.204 175.289 131.79" stroke="#4069E5" stroke-width="1.4694" stroke-linecap="round" stroke-linejoin="round"/>
<path d="M235.801 145.414C226.81 145.792 217.966 143.044 210.776 137.637" stroke="#4069E5" stroke-width="1.4694" stroke-linecap="round" stroke-linejoin="round"/>
<path d="M188.113 135.997L184.129 128.815" stroke="#4069E5" stroke-width="1.4694" stroke-linecap="round" stroke-linejoin="round"/>
<path d="M186.372 72.8341C188.83 76.4062 193.336 74.8434 199.555 68.8527" stroke="#4069E5" stroke-width="1.4694" stroke-linecap="round" stroke-linejoin="round"/>
<path d="M226.296 190.686L197.355 158.496L229.232 210.366" stroke="#4069E5" stroke-width="1.4694" stroke-linecap="round" stroke-linejoin="round"/>
<path d="M271.889 209.149C269.787 211.035 267.334 212.491 264.669 213.429C262.005 214.367 259.18 214.772 256.36 214.619C253.538 214.468 250.775 213.762 248.227 212.543C245.678 211.323 243.395 209.614 241.509 207.512L226.358 190.697L232.348 230.649L257.075 258.184C250.871 269.069 241.308 277.656 229.816 282.664L203.636 253.529C199.76 249.222 197.021 244.017 195.666 238.384C189.967 214.492 191.905 172.3 188.218 136.021C203.04 133.267 208.514 129.918 219.798 121.025C227.089 126.35 243.363 130.302 259.717 170.935L284.104 149.019C295.354 154.738 304.075 164.433 308.57 176.219L271.889 209.149Z" stroke="#4069E5" stroke-width="1.4694" stroke-linecap="round" stroke-linejoin="round"/>
<path d="M184.548 61.3004C185.534 60.933 186.497 60.5053 187.43 60.0197L185.538 64.1323" stroke="#4069E5" stroke-width="1.4694" stroke-linecap="round" stroke-linejoin="round"/>
<path d="M219.721 120.944C218.136 115.968 217.063 110.844 216.518 105.65C215.569 97.6602 213.249 89.8939 209.658 82.6921C206.15 75.3266 198.094 68.5348 193.978 60.7012C192.744 58.5492 191.961 56.1693 191.675 53.7058C191.26 51.1174 191.744 48.465 193.047 46.1895C198.596 44.3662 196.089 37.8389 192.34 40.3848C190.546 41.6049 189.844 41.5383 189.733 40.3476C189.632 39.7215 189.506 39.1257 189.358 38.5615M183.03 88.9061C185.774 80.9942 188.051 68.8971 184.58 61.3123C170.48 66.4805 171.673 48.2145 175.805 38.5615L183.03 88.9061Z" stroke="#4069E5" stroke-width="1.4694" stroke-linecap="round" stroke-linejoin="round"/>
<path d="M248.814 249.068C242.079 259.554 232.493 267.904 221.178 273.143" stroke="#4069E5" stroke-width="1.4694" stroke-linecap="round" stroke-linejoin="round"/>
<path d="M300.518 183.392C294.261 172.033 286.441 162.703 276.163 156.229" stroke="#4069E5" stroke-width="1.4694" stroke-linecap="round" stroke-linejoin="round"/>
<path d="M252.654 264.975C260.522 274.571 267.56 282.103 275.222 290.092C277.27 302.185 276.302 329.943 272.391 342.855C262.003 325.59 258.24 314.613 252.987 296.833L237.049 279.121" stroke="#4069E5" stroke-width="1.4694" stroke-linecap="round" stroke-linejoin="round"/>
<path d="M321.605 154.57C318.09 148.93 313.775 143.83 308.795 139.426" stroke="#4069E5" stroke-width="1.4694" stroke-linecap="round" stroke-linejoin="round"/>
<path d="M84.9139 138.816C80.8547 139.226 72.5952 141.754 74.1142 140.007C75.2177 138.98 76.4898 138.149 77.8755 137.551C83.1283 134.986 88.1537 134.165 93.7397 132.64L137.056 122.147L155.131 107.133" stroke="#4069E5" stroke-width="1.4694" stroke-linecap="round" stroke-linejoin="round"/>
<path d="M223.67 143.984L257.074 193.026L289.361 167.463" stroke="#4069E5" stroke-width="1.4694" stroke-linecap="round" stroke-linejoin="round"/>
<path d="M132.179 32.2548C131.928 33.7633 132.132 35.3122 132.763 36.7056C133.392 38.0988 134.423 39.2741 135.723 40.0825C137.02 40.8909 138.532 41.2963 140.06 41.2474C141.591 41.1984 143.071 40.6974 144.316 39.8075C145.56 38.9178 146.513 37.6791 147.054 36.2483C147.593 34.8177 147.697 33.259 147.35 31.7695C147.005 30.2801 146.223 28.9267 145.107 27.8805C143.99 26.8343 142.589 26.1422 141.08 25.8919C139.055 25.5574 136.979 26.0398 135.311 27.2328C133.643 28.4259 132.516 30.2321 132.179 32.2548Z" stroke="#4069E5" stroke-width="1.4694" stroke-linecap="round" stroke-linejoin="round"/>
<path d="M111.05 28.7542C110.799 30.2627 111.003 31.8116 111.634 33.205C112.264 34.5982 113.295 35.7735 114.594 36.5819C115.892 37.3903 117.403 37.7957 118.931 37.7468C120.462 37.6978 121.942 37.1966 123.187 36.3069C124.431 35.4172 125.384 34.1786 125.925 32.7477C126.464 31.3171 126.568 29.7584 126.221 28.2689C125.876 26.7795 125.094 25.4261 123.978 24.3799C122.861 23.3337 121.46 22.6416 119.951 22.3913C117.926 22.0568 115.852 22.539 114.182 23.7323C112.514 24.9253 111.387 26.7315 111.05 28.7542Z" stroke="#4069E5" stroke-width="1.4694" stroke-linecap="round" stroke-linejoin="round"/>
<path d="M89.5738 25.1862C89.3229 26.6947 89.5268 28.2436 90.1579 29.637C90.787 31.0302 91.818 32.2055 93.1175 33.0139C94.415 33.8223 95.9261 34.2275 97.4549 34.1788C98.9857 34.1298 100.466 33.6286 101.71 32.7389C102.955 31.849 103.907 30.6106 104.448 29.1797C104.987 27.7491 105.091 26.1904 104.744 24.7009C104.399 23.2113 103.617 21.8581 102.502 20.8119C101.385 19.7657 99.9834 19.0736 98.4742 18.8233C96.4495 18.4883 94.3738 18.9704 92.7059 20.1635C91.0359 21.3567 89.909 23.1633 89.5738 25.1862Z" stroke="#4069E5" stroke-width="1.4694" stroke-linecap="round" stroke-linejoin="round"/>
<path d="M311.599 -2.06677L325.824 17.952" stroke="#4069E5" stroke-width="1.4694" stroke-linecap="round" stroke-linejoin="round"/>
<path d="M308.694 15.0496L328.691 0.835571" stroke="#4069E5" stroke-width="1.4694" stroke-linecap="round" stroke-linejoin="round"/>
<path d="M368.13 213.807L368.576 213.956L354.835 226.123L372.971 246.03L363.251 254.7L345.115 234.756L331.413 246.925L321.17 198.739L368.13 213.807Z" stroke="#4069E5" stroke-width="1.4694" stroke-linecap="round" stroke-linejoin="round"/>
<path d="M127.963 241.276L156.787 232.345L132.544 215.527" stroke="#4069E5" stroke-width="1.4694" stroke-linecap="round" stroke-linejoin="round"/>
<path d="M104.203 237.474L80.1456 219.688L108.783 211.688" stroke="#4069E5" stroke-width="1.4694" stroke-linecap="round" stroke-linejoin="round"/>
<path d="M113.254 201.091L123.793 252.366" stroke="#4069E5" stroke-width="1.4694" stroke-linecap="round" stroke-linejoin="round"/>
<path d="M346.723 153.027L327.404 272.043C326.714 276.103 325.229 279.986 323.036 283.47C320.843 286.956 317.984 289.976 314.623 292.358C311.261 294.737 307.463 296.433 303.445 297.348C299.427 298.26 295.268 298.374 291.207 297.68L275.718 295.078" stroke="#4069E5" stroke-width="1.4694" stroke-linecap="round" stroke-linejoin="round"/>
<path d="M45.1421 151.733L33.6369 222.594C32.9431 226.652 33.0567 230.808 33.9701 234.823C34.8854 238.837 36.5828 242.633 38.9642 245.991C41.3475 249.35 44.3699 252.207 47.8587 254.399C51.3475 256.59 55.2322 258.073 59.2953 258.762L246.846 290.277" stroke="#4069E5" stroke-width="1.4694" stroke-linecap="round" stroke-linejoin="round"/>
<path d="M235.21 28.3228L332.745 44.6958C336.808 45.3858 340.694 46.8687 344.183 49.0599C347.671 51.2512 350.693 54.1079 353.076 57.4669C355.459 60.8258 357.156 64.621 358.07 68.6355C358.984 72.65 359.098 76.8054 358.404 80.8636L348.85 139.721" stroke="#4069E5" stroke-width="1.4694" stroke-linecap="round" stroke-linejoin="round"/>
<path d="M180.1 19.1205L100.816 5.81099C96.7545 5.11771 92.5954 5.23109 88.5774 6.14449C84.5594 7.0579 80.7609 8.75368 77.3995 11.1345C74.0381 13.5155 71.1785 16.535 68.9853 20.0206C66.792 23.5061 65.3083 27.3894 64.6184 31.4484L49.9164 122.01" stroke="#4069E5" stroke-width="1.4694" stroke-linecap="round" stroke-linejoin="round"/>
<path d="M267.742 282.195C263.64 287.825 258.662 292.762 252.995 296.818" stroke="#4069E5" stroke-width="1.4694" stroke-linecap="round" stroke-linejoin="round"/>
</g>
<defs>
<clipPath id="clip0_1_1351">
<rect width="374" height="340" fill="white"/>
</clipPath>
</defs>
</svg>
