<svg width="353" height="350" viewBox="0 0 353 350" fill="none" xmlns="http://www.w3.org/2000/svg">
<g clip-path="url(#clip0_1_647)">
<path d="M167.993 50.5992C168.429 50.2382 168.467 49.2312 168.543 48.2432C169.15 36.9157 169.188 25.5646 168.657 14.2332C168.41 11.7062 168.315 11.6112 165.621 11.4022C158.336 10.7752 127.108 11.4022 125.666 12.7322C124.68 13.6822 125.173 47.1792 126.065 50.2002C126.131 50.3401 126.233 50.4605 126.359 50.5503C126.485 50.6401 126.632 50.6961 126.786 50.7132C129.195 51.1122 165.925 52.3092 167.993 50.5992ZM126.084 13.1502C127.696 12.1052 163.307 11.9152 167.082 12.9602C168.05 17.5962 167.481 46.6852 166.93 49.5542C160.233 50.4662 130.997 49.8582 127.222 49.4592C126.192 37.3855 125.812 25.2649 126.084 13.1502ZM169.738 61.4102C169.709 61.2053 169.624 61.0121 169.495 60.8515C169.365 60.6908 169.193 60.5686 168.998 60.4982C165.735 59.3202 128.493 60.0992 127.013 61.5242C126.084 62.3982 126.425 95.7244 127.393 98.9924C127.459 99.1321 127.561 99.2527 127.687 99.342C127.813 99.4323 127.96 99.4883 128.114 99.5054C131.225 100.018 164.312 100.816 168.676 99.6764C169.321 99.5054 169.53 99.2584 169.643 98.8404C170.402 95.9714 170.725 65.2862 169.738 61.4102ZM168.258 98.3274C161.542 99.2394 132.458 98.6694 128.55 98.3274C127.658 93.8622 126.937 64.7922 127.412 62.0182C129.1 60.8782 164.938 60.8592 168.41 61.8092C169.302 66.0272 168.828 95.1164 168.258 98.3274ZM218.914 50.1812C219.331 49.8392 219.369 48.8132 219.464 47.8252C220.033 36.4957 220.033 25.1447 219.464 13.8152C219.217 11.2882 219.103 11.2122 216.447 10.9842C209.143 10.3762 177.934 10.9842 176.492 12.3142C175.506 13.2452 175.98 46.7612 176.891 49.7822C176.946 49.9266 177.041 50.0519 177.166 50.143C177.29 50.2341 177.438 50.287 177.593 50.2952C180.211 50.7132 216.827 51.8912 218.914 50.1812ZM177.005 12.7322C180.799 11.5732 214.607 11.5922 217.984 12.5422C218.876 16.7982 218.477 45.8112 217.832 49.1362C211.116 50.0482 182.013 49.4592 178.124 49.1362C177.091 37.031 176.717 24.8783 177.005 12.7322ZM55.3748 124.452C55.6404 125.193 56.627 125.516 57.4428 125.706C64.3865 127.397 89.8849 126.485 97.7585 124.984C98.5933 124.832 100.263 124.528 100.718 123.825C102.464 121.013 101.762 75.8122 99.6747 73.3042C97.5878 70.7962 60.9146 71.2332 57.6894 73.7032C55.261 75.5842 54.6918 122.476 55.3748 124.452ZM58.5052 74.6722C61.5786 72.5252 97.7585 71.8982 99.2194 73.6652C101.117 75.9452 100.889 120.386 99.5798 123.065C96.0321 124.965 61.2561 126.162 56.7598 123.977C56.1527 123.616 56.7218 78.5672 58.5052 74.6722ZM9.00724 137.923C9.15806 138.15 9.36078 138.337 9.59831 138.469C9.83593 138.601 10.1015 138.675 10.3732 138.683C17.1916 139.241 24.048 139.126 30.844 138.341C31.4648 138.317 32.0622 138.097 32.5515 137.714C33.576 136.365 33.0448 117.46 31.8875 116.32C30.7302 115.18 12.2135 115.123 10.3542 116.32C10.0702 116.564 9.88184 116.901 9.82303 117.27C8.96559 124.119 8.69268 131.028 9.00724 137.923ZM31.4511 136.916C28.0816 137.386 24.6842 137.627 21.2821 137.638C21.5361 137.121 21.8212 136.62 22.1359 136.137C23.2623 134.661 24.7292 133.48 26.4111 132.696C28.0929 131.912 29.9394 131.547 31.7926 131.634C31.7846 133.4 31.6706 135.164 31.4511 136.916ZM11.17 117.327C13.4467 116.434 30.9199 116.187 31.4891 116.738C31.6608 117.313 31.7626 117.906 31.7926 118.505C28.8899 118.885 28.4346 124.376 28.3587 127.302C27.1821 125.391 25.8764 123.563 24.4504 121.83C23.9511 121.43 23.3588 121.163 22.7285 121.053C22.0984 120.943 21.4507 120.995 20.8458 121.203C19.4608 121.811 19.7264 123.521 19.9161 124.87C20.4033 126.598 21.091 128.262 21.9651 129.829C20.8268 128.917 16.2735 125.231 14.9834 125.003C13.6933 124.775 12.4412 124.851 11.7961 125.991C9.89892 129.335 14.4712 134.883 17.1842 137.6C14.9016 137.63 12.6196 137.504 10.3542 137.22C10.1276 130.578 10.4003 123.928 11.17 117.327Z" fill="#1638A0" fill-opacity="0.75"/>
<path d="M2.12525 144.768C2.39086 145.395 3.26357 145.623 4.02245 145.756C9.7141 146.934 30.2039 146.269 36.5595 145.243C37.2804 145.11 38.6463 144.901 39.0447 144.369C40.5245 142.355 39.8986 110.891 38.1721 109.067C36.7113 107.547 6.92522 107.414 4.13629 109.238C3.76906 109.592 3.5346 110.062 3.47227 110.568C2.01142 116.306 1.55609 143.362 2.12525 144.768ZM4.85722 110.283C7.47541 108.858 36.5215 108.383 37.6788 109.485C38.8361 110.587 39.0068 140.322 37.9064 143.514C34.2448 144.692 11.7062 145.642 3.47227 144.198C3.09283 142.906 3.43432 114.349 4.85722 110.283ZM291.126 105.989C291.862 106.833 292.647 107.632 293.478 108.383C293.497 108.416 293.523 108.443 293.554 108.465C293.585 108.486 293.62 108.501 293.657 108.508C293.694 108.515 293.732 108.515 293.768 108.505C293.805 108.496 293.839 108.48 293.868 108.458C293.899 108.434 293.922 108.405 293.94 108.372C293.958 108.339 293.969 108.303 293.971 108.265C293.974 108.228 293.968 108.19 293.956 108.154C293.942 108.119 293.922 108.087 293.896 108.06C292.433 105.19 290.368 102.668 287.844 100.669C287.795 100.616 287.729 100.585 287.658 100.581C287.587 100.577 287.517 100.602 287.464 100.65C287.411 100.698 287.38 100.765 287.376 100.837C287.372 100.908 287.397 100.977 287.445 101.03C288.51 102.798 289.742 104.459 291.126 105.989ZM271.869 113.114C272.622 110.229 272.746 107.216 272.23 104.279C272.23 104.209 272.201 104.141 272.152 104.091C272.102 104.041 272.034 104.013 271.964 104.013C271.894 104.013 271.826 104.041 271.776 104.091C271.726 104.141 271.699 104.209 271.699 104.279C271.458 105.38 271.299 106.499 271.224 107.623C271.026 109.438 271.064 111.271 271.338 113.076C271.3 113.437 271.831 113.475 271.869 113.114ZM247.149 110.967C248.003 109.731 248.722 108.406 249.293 107.015C249.942 105.648 250.421 104.206 250.716 102.721C250.707 102.675 250.686 102.632 250.656 102.596C250.625 102.561 250.586 102.533 250.541 102.518C250.497 102.503 250.449 102.499 250.403 102.509C250.357 102.517 250.314 102.538 250.279 102.569C250.089 102.873 249.501 103.747 249.141 104.469C248.024 106.474 247.207 108.631 246.712 110.872C246.678 110.906 246.655 110.948 246.642 110.995C246.631 111.041 246.632 111.09 246.645 111.136C246.658 111.181 246.684 111.223 246.719 111.255C246.754 111.288 246.797 111.31 246.843 111.321C246.89 111.33 246.938 111.328 246.984 111.313C247.029 111.298 247.069 111.27 247.1 111.234C247.132 111.198 247.153 111.155 247.161 111.107C247.17 111.061 247.166 111.012 247.149 110.967ZM129.655 242.029C139.691 242.675 139.824 231.807 129.655 233.536C123.167 233.878 125.159 241.687 129.655 242.029ZM129.655 234.106C138.136 233.669 137.453 241.06 129.655 240.585C126.961 240.452 124.59 234.961 129.731 234.106H129.655ZM166.347 236.139C176.421 236.785 176.516 225.917 166.347 227.646C159.934 227.969 161.87 235.797 166.347 236.139ZM166.347 228.216C174.828 227.779 174.163 235.17 166.347 234.695C163.691 234.562 161.3 229.071 166.423 228.216H166.347ZM187.899 240.775C197.954 241.421 198.068 230.553 187.899 232.263C181.468 232.624 183.403 240.433 187.899 240.775ZM187.899 232.852C196.38 232.415 195.716 239.806 187.899 239.331C185.243 239.198 182.834 233.669 187.975 232.852H187.899ZM193.762 225.233C203.798 225.879 203.95 215.011 193.762 216.74C187.33 217.082 189.284 224.91 193.762 225.233ZM193.762 217.329C202.242 216.892 201.559 224.264 193.762 223.808C191.105 223.656 188.696 218.165 193.837 217.329H193.762ZM118.101 201.673C120.703 202.302 123.445 201.994 125.842 200.799C129.636 198.747 129.807 194.073 127.568 190.425C124.096 184.725 116.868 185.314 114.288 189.399C113.183 191.366 112.813 193.663 113.244 195.878C113.501 197.176 114.08 198.387 114.929 199.401C115.778 200.414 116.869 201.196 118.101 201.673ZM114.667 195.669C114.28 193.789 114.541 191.833 115.407 190.121C116.318 188.813 117.652 187.86 119.184 187.423C120.715 186.987 122.35 187.095 123.812 187.727C127.72 189.931 129.788 197.341 125.178 199.602C123.123 200.586 120.799 200.854 118.576 200.362C117.588 199.963 116.714 199.327 116.032 198.508C115.35 197.689 114.882 196.713 114.667 195.669Z" fill="#1638A0" fill-opacity="0.75"/>
<path d="M118.623 190.859C118.395 190.479 117.181 190.137 117.276 191.296C117.371 192.455 119.344 192.018 118.623 190.859ZM122.854 190.897C123.271 190.232 121.621 188.997 121.45 190.574C121.393 191.087 122.114 192.018 122.854 190.897ZM118.13 195.628C117.428 196.103 119.61 198.288 122.304 197.072C122.718 196.902 123.078 196.62 123.341 196.258C123.606 195.896 123.765 195.468 123.802 195.02C123.814 194.984 123.818 194.946 123.814 194.908C123.81 194.87 123.8 194.834 123.782 194.8C123.764 194.767 123.741 194.737 123.711 194.713C123.682 194.689 123.649 194.671 123.613 194.659C123.577 194.648 123.539 194.644 123.501 194.647C123.463 194.651 123.427 194.662 123.393 194.679C123.359 194.697 123.33 194.721 123.305 194.751C123.282 194.779 123.264 194.813 123.252 194.849C122.603 195.378 121.833 195.735 121.011 195.888C120.189 196.041 119.341 195.984 118.547 195.723C118.501 195.659 118.433 195.614 118.357 195.596C118.28 195.579 118.199 195.59 118.13 195.628ZM141.029 205.394C142.755 206.116 150.932 205.907 152.279 204.197C152.621 203.779 152.393 203.361 152.147 202.886C151.312 201.29 146.664 193.5 144.994 193.785C143.325 194.07 141.655 198.535 141.2 199.998C140.744 201.461 139.644 204.805 141.029 205.394ZM142.926 198.136C143.173 197.395 144.235 194.507 144.994 194.336C145.753 194.165 150.686 203.266 150.8 203.456C147.8 204.249 144.678 204.468 141.598 204.102C141.779 202.057 142.253 200.048 143.002 198.136H142.926ZM190.28 106.518C190.252 106.345 190.163 106.187 190.029 106.072C189.895 105.958 189.725 105.895 189.55 105.895C189.373 105.895 189.204 105.958 189.07 106.072C188.936 106.187 188.847 106.345 188.819 106.518C188.837 106.963 188.914 107.404 189.047 107.829C189.062 107.935 189.1 108.035 189.158 108.124C189.215 108.213 189.292 108.289 189.381 108.346C189.47 108.403 189.571 108.44 189.676 108.456C189.781 108.471 189.889 108.462 189.99 108.432C190.092 108.401 190.185 108.35 190.265 108.28C190.346 108.21 190.409 108.124 190.453 108.027C190.497 107.93 190.519 107.826 190.518 107.719C190.518 107.613 190.496 107.507 190.451 107.411C190.366 107.12 190.308 106.821 190.28 106.518ZM194.34 112.959C194.826 112.743 195.27 112.44 195.649 112.066C195.953 111.781 195.82 111.458 195.384 111.534L194.113 111.8C193.859 110.875 193.701 109.926 193.638 108.969C193.638 108.247 193.316 105.929 192.936 105.777C192.557 105.625 192.462 106.366 192.348 107.012C192.007 109.178 192.291 113.757 194.34 112.959ZM197.471 106.005C197.498 106.179 197.587 106.337 197.721 106.451C197.855 106.565 198.025 106.628 198.201 106.628C198.377 106.628 198.546 106.565 198.68 106.451C198.814 106.337 198.903 106.179 198.932 106.005V104.96C198.908 104.768 198.813 104.59 198.665 104.464C198.518 104.337 198.328 104.27 198.135 104.276C197.94 104.295 197.76 104.39 197.633 104.538C197.506 104.687 197.44 104.879 197.452 105.074C197.376 105.207 197.471 106.005 197.471 106.005ZM198.211 114.156C197.945 114.156 198.211 114.156 196.788 115.277C196.65 115.39 196.504 115.491 196.351 115.581C194.947 116.398 194.302 115.942 194.17 116.36C194.037 116.778 195.156 117.443 196.389 117.139C198.4 116.645 198.723 114.308 198.211 114.156ZM60.853 117.994C61.0617 118.64 61.8585 118.925 62.5226 119.077C67.9296 120.445 87.319 119.666 93.0867 118.526C93.8077 118.374 94.9839 118.127 95.4203 117.538C96.7863 115.277 96.1223 80.1843 94.5476 78.2083C92.9729 76.2323 65.1976 76.4793 62.6554 78.4553C60.7582 79.9753 60.3218 116.436 60.853 117.994ZM91.3982 100.894C91.9636 100.691 92.5679 100.618 93.1655 100.681C93.7631 100.742 94.3389 100.939 94.8511 101.255C94.9318 106.442 94.7354 111.63 94.263 116.797L93.8836 116.93C92.5897 112.093 89.9594 107.72 86.2945 104.314C87.8602 102.967 89.5721 101.801 91.3982 100.837V100.894ZM84.4352 85.6943C87.5656 87.7083 87.4707 92.8763 82.0068 92.9333C78.6867 92.9333 77.2638 91.3373 77.2638 89.4373C77.244 88.5939 77.4592 87.7615 77.8853 87.0336C78.3114 86.3058 78.9316 85.7112 79.6763 85.3166C80.421 84.922 81.2607 84.743 82.1013 84.7997C82.9418 84.8563 83.7501 85.1464 84.4352 85.6373V85.6943ZM65.7288 101.654C71.2876 98.3295 75.4046 98.1395 80.9064 101.654C85.8202 104.827 91.2085 111.154 92.4986 117.253C86.8067 118.279 64.951 119.153 62.1431 117.614C61.8965 116.588 61.8016 105.834 61.8016 104.656C63.0086 103.512 64.324 102.487 65.7288 101.597V101.654ZM247.291 313.846C246.412 313.913 245.541 314.066 244.692 314.302C243.8 314.644 243.022 315.195 243.459 316.05C244.009 317.273 244.849 318.343 245.906 319.166C246.172 319.451 246.589 319.033 246.324 318.748C246.058 318.463 246.02 317.874 244.958 315.765C245.86 315.374 246.729 314.91 247.557 314.378C247.611 314.335 247.649 314.274 247.664 314.207C247.679 314.138 247.67 314.067 247.639 314.004C247.608 313.942 247.556 313.892 247.493 313.864C247.43 313.835 247.359 313.828 247.291 313.846ZM243.44 308.393C243.077 308.361 242.714 308.434 242.393 308.602C242.07 308.772 241.804 309.029 241.624 309.345C241.444 309.662 241.359 310.023 241.378 310.387C241.397 310.749 241.52 311.1 241.732 311.395C241.748 311.461 241.786 311.519 241.841 311.56C241.894 311.602 241.959 311.623 242.026 311.623C242.094 311.623 242.159 311.602 242.212 311.56C242.265 311.519 242.303 311.461 242.32 311.395C242.321 310.912 242.449 310.437 242.688 310.018C242.927 309.598 243.271 309.248 243.686 309.001C243.971 308.792 243.914 308.298 243.44 308.393ZM194.625 119.476C194.427 119.47 194.232 119.529 194.07 119.644C193.909 119.758 193.788 119.922 193.728 120.111C193.669 120.3 193.672 120.504 193.737 120.692C193.803 120.879 193.929 121.039 194.094 121.148C194.291 121.274 194.53 121.319 194.76 121.272C194.989 121.226 195.192 121.093 195.327 120.901C195.412 120.767 195.461 120.612 195.469 120.453C195.478 120.293 195.445 120.135 195.374 119.991C195.304 119.849 195.198 119.726 195.067 119.636C194.936 119.546 194.783 119.491 194.625 119.476ZM197.964 120.73C197.725 120.753 197.503 120.863 197.339 121.037C197.175 121.212 197.08 121.44 197.072 121.68C197.07 121.857 197.121 122.031 197.217 122.179C197.314 122.327 197.453 122.443 197.615 122.513C197.777 122.582 197.957 122.601 198.131 122.568C198.305 122.535 198.464 122.451 198.59 122.326C198.73 122.202 198.829 122.039 198.873 121.856C198.917 121.674 198.904 121.483 198.836 121.308C198.767 121.134 198.647 120.985 198.49 120.882C198.335 120.778 198.151 120.726 197.964 120.73ZM197.907 117.861C197.869 117.996 197.862 118.139 197.888 118.277C197.915 118.415 197.972 118.545 198.056 118.658C198.14 118.77 198.25 118.861 198.376 118.924C198.501 118.986 198.639 119.02 198.78 119.02C198.913 119.016 199.045 118.983 199.166 118.925C199.287 118.868 199.394 118.785 199.482 118.683C199.57 118.582 199.634 118.463 199.674 118.335C199.713 118.206 199.725 118.07 199.709 117.937C199.668 117.734 199.559 117.55 199.401 117.416C199.243 117.281 199.044 117.203 198.838 117.195C198.631 117.186 198.426 117.247 198.258 117.367C198.089 117.488 197.966 117.662 197.907 117.861ZM203.067 121.775C203.264 121.781 203.456 121.721 203.615 121.606C203.774 121.491 203.891 121.327 203.947 121.138C204.004 120.95 203.996 120.749 203.926 120.564C203.856 120.381 203.728 120.225 203.561 120.122C203.424 120.039 203.268 119.992 203.107 119.989C202.947 119.986 202.789 120.024 202.648 120.101C202.508 120.178 202.39 120.291 202.308 120.428C202.224 120.565 202.179 120.722 202.176 120.882C202.18 121.118 202.276 121.342 202.442 121.509C202.608 121.675 202.832 121.771 203.067 121.775ZM204.718 117.538C204.845 117.512 204.965 117.46 205.07 117.384C205.174 117.308 205.262 117.21 205.326 117.097C205.391 116.985 205.429 116.859 205.442 116.73C205.454 116.601 205.439 116.471 205.396 116.348C205.355 116.226 205.286 116.113 205.197 116.018C205.109 115.924 205.001 115.85 204.88 115.801C204.761 115.752 204.632 115.729 204.502 115.733C204.373 115.738 204.246 115.771 204.13 115.828C203.932 115.927 203.776 116.094 203.693 116.3C203.609 116.504 203.602 116.733 203.675 116.942C203.747 117.151 203.892 117.327 204.084 117.437C204.276 117.547 204.501 117.583 204.718 117.538Z" fill="#1638A0" fill-opacity="0.75"/>
<path d="M346.687 210.235C343.072 209.143 339.188 209.365 335.721 210.862C343.556 200.792 347.768 190.722 347.768 177.156C347.768 169.461 347.009 162.222 339.743 159.809C335.265 158.308 327.43 160.645 323.18 162.811C323.18 154.755 323.844 48.5642 320.961 40.8882C320.733 40.2232 319.443 39.9382 318.684 39.7482C310.507 37.7532 271.254 34.1812 269.357 35.8342C268.124 36.8982 268.541 44.9352 268.617 46.5312C266.056 46.5312 253.857 46.3602 252.225 48.3172C249.702 51.3002 236.27 85.9942 237.047 89.8512C237.084 90.0691 237.191 90.269 237.351 90.4212C245.395 98.2684 298.593 96.8434 301.021 91.9602C302.596 89.1102 291.914 51.5092 290.017 49.3622C288.12 47.2152 272.316 46.6452 269.3 46.6072C269.101 43.4371 269.215 40.255 269.641 37.1072C269.831 36.3092 269.964 36.3852 270.267 36.3282C275.352 35.3972 316.844 39.5012 319.955 41.4582C321.359 45.7902 321.378 73.4352 322.004 163.571C316.595 166.669 312.315 171.416 309.786 177.118C307.282 176.738 303.867 179.588 302.083 181.374C299.652 183.86 297.537 186.636 295.785 189.639C295.459 184.143 294.55 178.697 293.072 173.394C288.765 161.785 275.788 141.094 266.739 149.834C263.307 153.708 260.975 158.432 259.985 163.514C256.683 160.375 253.05 157.604 249.152 155.249C246.856 147.171 241.782 140.165 234.828 135.47C232.001 133.481 229.004 131.745 225.873 130.283C225.848 130.223 225.816 130.166 225.778 130.112C223.881 127.965 219.005 127.319 216.102 127.205C216.368 125.02 214.49 115.52 214.034 113.202C214.6 113.213 215.158 113.068 215.647 112.784C217.544 112.67 224.981 112.309 226.328 111.112C226.576 110.829 226.734 110.479 226.784 110.105C227.099 108.149 227.302 106.176 227.391 104.196C228.32 90.1552 227.694 90.8962 228.131 90.8962C234.126 93.1192 236.099 87.3242 228.131 84.5122V83.9422C230.464 83.4292 233.177 82.3462 232.096 80.1422C231.657 79.522 231.067 79.0228 230.384 78.6906C229.701 78.3585 228.945 78.2043 228.188 78.2422C228.188 73.4162 229.459 5.87128 226.423 2.24228C223.027 -1.80472 119.269 0.190275 115.721 3.95228C113.578 6.11828 114.906 101.536 117.372 110.618C117.505 111.093 118.017 111.188 118.51 111.264C126.725 112.594 175.426 113.164 186.81 113.278C187.051 114.505 187.361 115.716 187.739 116.907C188.61 119.082 189.899 121.064 191.534 122.74C192.963 123.741 194.648 124.315 196.39 124.393C195.821 125.685 194.721 128.079 194.152 129.276C188.8 130.855 183.692 133.17 178.974 136.154C166.225 144.951 156.796 161.329 149.624 174.762C148.282 177.422 147.122 180.172 146.153 182.989C138.26 182.78 105.818 183.92 104.964 184.889C104.528 185.307 104.964 186.181 105.078 186.96C106.558 192.451 112.079 210.349 114.355 216.771C110.922 217.322 107.488 218.025 104.054 218.671C103.962 218.418 103.854 218.17 103.731 217.93C103.684 217.82 103.615 217.72 103.529 217.638C103.442 217.554 103.34 217.49 103.228 217.447C103.116 217.404 102.997 217.385 102.877 217.39C102.758 217.394 102.64 217.423 102.531 217.473C102.423 217.525 102.326 217.597 102.247 217.686C102.167 217.776 102.105 217.881 102.067 217.994C102.028 218.108 102.013 218.228 102.022 218.347C102.031 218.467 102.064 218.584 102.119 218.69C102.156 218.77 102.187 218.853 102.213 218.937C98.1534 219.488 95.744 219.431 86.789 220.704C86.7276 220.5 86.5951 220.324 86.4156 220.209C86.2362 220.095 86.0215 220.048 85.8105 220.077C85.5995 220.108 85.4062 220.212 85.2655 220.372C85.1249 220.532 85.0461 220.738 85.0436 220.951C79.8452 221.73 75.1971 222.547 69.6763 223.573C69.6013 223.334 69.5126 223.099 69.4106 222.87C69.3147 222.654 69.1383 222.483 68.9187 222.394C68.6991 222.305 68.4537 222.306 68.2344 222.395C68.1256 222.441 68.0269 222.508 67.944 222.592C67.8612 222.676 67.7957 222.775 67.7516 222.885C67.7075 222.995 67.6856 223.112 67.687 223.23C67.6885 223.348 67.7133 223.465 67.7601 223.573C67.7601 223.687 67.7601 223.782 67.8929 223.896C63.1878 224.77 58.4069 225.682 53.7967 226.537V225.739C53.7596 225.508 53.6383 225.299 53.4561 225.151C53.274 225.003 53.044 224.929 52.8101 224.941C52.6928 224.953 52.579 224.988 52.4753 225.044C52.3715 225.1 52.28 225.177 52.2058 225.268C52.1317 225.36 52.0765 225.466 52.0435 225.58C52.0105 225.693 52.0002 225.812 52.0133 225.929C52.0324 226.239 52.0324 226.55 52.0133 226.86C49.6798 227.278 47.3272 227.658 44.9747 228.038C44.9033 227.846 44.7676 227.683 44.5906 227.58C44.4136 227.475 44.2062 227.435 44.0032 227.467C43.8003 227.498 43.6144 227.599 43.4769 227.751C43.3393 227.904 43.2586 228.099 43.2483 228.304C27.6533 230.717 30.9165 229.938 26.5529 221.236C25.814 219.244 24.5563 217.486 22.9103 216.144C22.6496 215.993 22.3614 215.896 22.0627 215.858C21.7639 215.82 21.4606 215.843 21.1707 215.925C20.8808 216.007 20.6101 216.145 20.3745 216.333C20.1389 216.521 19.9432 216.753 19.7989 217.018C18.5847 218.728 19.4384 224.485 19.7989 226.689C20.1593 228.893 22.0945 239.115 23.4225 240.445C23.9158 240.939 25.5284 240.977 26.9703 241.053V241.49C13.8037 242.725 -2.89161 247.38 -4.06787 260.642C-4.94059 270.579 3.10354 274.512 12.7982 276.621C12.1911 279.946 4.07111 323.361 4.50747 325.888C5.03865 328.757 11.9065 330.429 13.0638 327.332C14.8472 322.487 21.3546 283.119 22.2083 277.932C31.9134 278.815 41.6861 278.623 51.3493 277.362C52.222 282.53 58.6915 321.67 60.4748 326.515C61.6132 329.593 68.5 327.921 69.0122 325.071C69.4676 322.544 61.4234 279.585 60.6456 275.329C71.4406 272.099 82.4444 265.487 80.9456 254.258C94.7574 253.631 110.561 251.921 124.221 250.135C124.208 252.585 124.781 255.001 125.89 257.184C127.237 259.711 132.075 261.44 134.788 262.314C134.295 264.955 125.056 314.146 125.53 316.825C126.004 319.504 132.929 321.347 134.067 318.269C135.965 313.234 142.87 270.997 143.952 264.689C164.973 269.04 174.724 267.767 182.256 266.912C182.446 269.173 186.051 315.913 187.246 318.212C188.498 320.834 195.575 320.644 195.878 317.376C196.352 312.113 192.084 270.826 191.685 265.677C203.25 264.206 214.61 261.427 225.55 257.393C227.827 266.076 233.613 287.793 234.107 289.56C228.599 291.725 223.941 295.619 220.826 300.656C217.484 302.148 214.227 303.829 211.075 305.691C209.333 306.457 207.658 307.366 206.066 308.408C204.562 309.362 203.27 310.617 202.272 312.094C202.162 312.34 202.105 312.605 202.105 312.873C202.105 313.142 202.162 313.407 202.272 313.652C202.734 314.594 203.379 315.434 204.169 316.122C207.641 319.143 209.405 317.718 216.007 327.161C219.384 331.968 220.618 338.105 224.848 343.292C227.827 346.94 229.307 350.892 236.232 349.125C240.026 348.175 242.113 346.522 247.292 345.116C249.929 344.413 252.642 343.9 255.28 343.102C271.633 338.2 267.782 339.53 278.976 337.934C280.873 337.649 282.903 337.212 284.857 336.908C288.283 336.628 291.722 336.527 295.159 336.604C295.591 336.491 295.979 336.248 296.27 335.909C296.562 335.57 296.743 335.149 296.79 334.704C296.956 333.706 297.001 332.692 296.923 331.683C297.118 329.372 296.544 327.061 295.291 325.109C304.057 326.629 327.145 324.805 329.081 323.665C329.26 323.573 329.406 323.427 329.498 323.247C330.636 320.796 332.249 298.87 332.268 290.472C332.903 290.371 333.536 290.25 334.165 290.111C335.493 289.788 335.683 283.575 334.848 281.884C334.78 281.719 334.676 281.571 334.545 281.449C334.415 281.328 334.259 281.237 334.089 281.181C328.663 279.946 313.808 280.25 307.965 280.478C307.751 273.399 306.984 266.347 305.669 259.388C312.703 257.77 319.541 255.394 326.064 252.301C338.225 246.278 345.283 243.903 353.422 232.142C359.246 223.782 356.305 213.427 346.687 210.235ZM289.562 49.6662C291.459 51.5662 300.319 85.7662 300.167 91.0482C300.053 95.4184 246.268 96.7484 238.508 89.5472C238.603 83.6002 251.257 51.3002 253.136 49.0202C255.014 46.7402 287.096 47.0062 289.562 49.6662ZM327.772 162.393C330.94 161.348 336.119 160.113 339.288 161.177C345.852 163.362 346.307 170.259 346.307 177.156C346.307 191.482 341.488 201.704 332.818 212.173C328.834 214.374 325.202 217.16 322.042 220.438C323.747 213.325 324.164 205.963 323.275 198.702C323.128 197.411 322.855 196.139 322.459 194.902C323.781 190.896 325.417 187.002 327.354 183.255C330.409 177.555 331.642 177.65 331.149 177.175C331.124 177.147 331.093 177.124 331.058 177.109C331.024 177.093 330.987 177.085 330.949 177.085C330.911 177.085 330.874 177.093 330.84 177.109C330.805 177.124 330.775 177.147 330.75 177.175C326.737 181.714 323.673 187.011 321.738 192.755C319.974 188.043 315.421 179.588 310.962 177.555C312.557 173.996 314.875 170.809 317.769 168.199C320.665 165.588 324.071 163.61 327.772 162.393ZM302.994 182.362C304.605 180.539 306.706 179.22 309.046 178.562C312.651 177.992 321.112 191.178 321.814 198.968C322.82 206.944 322.174 215.041 319.917 222.756C318.018 224.829 316.251 227.018 314.624 229.311C311.038 234.403 309.122 235.429 306.124 243.58C306.637 223.402 308.23 197.486 308.23 196.631C308.249 196.588 308.257 196.539 308.253 196.492C308.248 196.444 308.232 196.399 308.207 196.359C308.18 196.32 308.144 196.287 308.101 196.265C308.06 196.243 308.012 196.231 307.965 196.232C307.642 196.232 307.642 196.631 307.604 196.935C307.092 201.78 305.195 233.662 304.815 246.031C301.457 229.824 293.432 223.706 290.719 219.773C289.676 206.682 293.622 191.615 302.994 182.362ZM265.05 196.935C266.947 202.16 270.343 209.589 274.536 213.18C270.209 212.269 265.719 212.492 261.502 213.826C262.47 210.425 264.538 201.02 265.088 196.878L265.05 196.935ZM258.884 218.462C258.85 217.949 258.976 217.438 259.245 216.999C263.039 211.983 283.51 211.85 295.291 227.677C300.991 235.739 304.137 245.332 304.322 255.208C299.067 246.316 280.854 228.874 269.11 224.808C269.074 224.796 269.035 224.79 268.997 224.793C268.959 224.795 268.922 224.805 268.888 224.822C268.853 224.839 268.823 224.862 268.797 224.89C268.771 224.92 268.753 224.953 268.74 224.989C268.728 225.025 268.722 225.063 268.725 225.101C268.727 225.14 268.736 225.177 268.753 225.211C268.771 225.245 268.793 225.277 268.822 225.302C268.851 225.327 268.884 225.347 268.92 225.359C282.751 230.432 304.493 254.03 304.208 258.837C303.034 258.815 301.86 258.891 300.698 259.065C299.054 259.064 297.411 258.937 295.785 258.685C290.586 257.792 287.247 255.398 279.336 247.95C273.768 242.851 268.599 237.33 263.874 231.439C262.072 228.304 258.827 222.129 258.884 218.462ZM261.161 164.255C262.035 159.244 264.282 154.574 267.649 150.765C275.504 143.165 287.854 163.628 291.63 173.812C293.231 179.759 294.185 185.862 294.476 192.014C290.796 199.997 289.085 208.748 289.486 217.531C284.06 209.323 276.509 191.482 273.758 177.631C273.246 175.18 271.178 162.241 271.178 160.74C271.406 160.36 270.609 159.923 270.571 160.74C271.031 169.132 272.257 177.462 274.233 185.63C277.133 195.81 281.194 205.621 286.337 214.871C290.435 222.471 291.25 219.545 282.201 215.384C280.364 214.581 278.46 213.944 276.509 213.484C275.496 212.74 274.555 211.9 273.701 210.976C266.207 202.293 259.34 178.106 261.161 164.274V164.255ZM118.51 223.155C121.299 223.307 124.411 222.528 125.568 220.02L139.133 220.362C139.008 221.587 139.361 222.812 140.117 223.783C140.874 224.753 141.976 225.394 143.193 225.568C144.304 225.715 145.434 225.629 146.511 225.319C147.588 225.008 148.59 224.479 149.454 223.763C149.903 223.366 150.253 222.869 150.474 222.311C150.695 221.752 150.781 221.15 150.725 220.552L159.661 220.685C160.135 221.369 186.677 218.272 189.048 217.151C190.225 216.6 189.883 214.662 189.2 213.56C189.428 213.56 189.314 213.56 189.579 213.997C189.74 214.394 190.01 214.737 190.357 214.985C193.607 215.383 196.905 214.998 199.976 213.864C200.583 213.446 200.507 212.952 200.375 212.173C217.222 209.779 215.818 210.273 225.38 208.069C225.911 207.955 218.739 210.444 214.471 212.743C212.41 213.83 210.497 215.177 208.779 216.752C204.454 220.913 194.93 250.8 187.322 252.244C178.03 253.803 168.569 254.072 159.205 253.042C159.475 252.378 159.543 251.649 159.402 250.946C159.259 250.243 158.914 249.598 158.408 249.09C157.616 248.363 156.69 247.799 155.681 247.431C154.672 247.062 153.6 246.897 152.527 246.943C149.226 246.943 147.575 248.976 148.164 251.617C139.48 250.213 130.908 248.188 122.513 245.556C121.679 243.162 118.947 226.062 118.51 223.155ZM118.207 219.735L123.898 219.982C123.213 220.656 122.384 221.167 121.474 221.476C120.564 221.786 119.597 221.885 118.643 221.768C118.567 221.559 118.416 220.723 118.207 219.735ZM149.321 220.533C149.33 220.66 149.33 220.787 149.321 220.913C149.266 221.379 149.102 221.825 148.841 222.215C148.58 222.604 148.231 222.927 147.822 223.155C146.427 223.96 144.812 224.299 143.212 224.124C142.439 223.965 141.735 223.568 141.197 222.989C140.66 222.411 140.317 221.678 140.214 220.894C140.205 220.723 140.205 220.552 140.214 220.381L149.321 220.533ZM166.946 206.511L162.374 207.081C176.318 188.385 168.407 196.821 166.946 206.511ZM161.463 208.411L167.155 207.765C167.629 208.601 172.182 210.083 173.055 210.368C172.888 210.686 172.748 211.016 172.637 211.356C168.559 211.052 164.271 210.767 159.831 210.615L161.463 208.411ZM199.047 212.762C196.463 213.498 193.78 213.819 191.097 213.712C189.053 209 187.304 204.165 185.861 199.234C188.033 197.329 190.639 195.985 193.45 195.32C194.285 197.315 198.952 210.748 199.047 212.762ZM188.783 212.249C178.12 212.914 175.502 213.294 173.814 212.876C173.7 208.259 181.611 205.865 186.202 205.124C187.113 207.917 188.062 210.463 188.783 212.23V212.249ZM166.87 216.41C169.033 216.106 185.842 213.864 188.005 214.377C188.269 214.832 188.394 215.353 188.365 215.878C185.747 216.676 160.42 220.058 160.192 220.077C159.95 219.341 159.822 218.573 159.812 217.797V217.645C160.761 217.626 157.213 217.74 166.87 216.391V216.41ZM158.731 211.888C162.525 212.04 166.491 212.249 172.391 212.724C172.391 213.237 172.391 213.712 172.922 214.092C173.453 214.472 174.819 213.921 166.434 215.498C164.067 215.819 161.739 216.386 159.49 217.189C158.352 211.432 158.295 212.401 158.731 211.869V211.888ZM157.896 252.453C148.126 251.427 148.79 251.769 148.771 251.351C148.715 250.85 148.796 250.342 149.007 249.884C149.217 249.425 149.549 249.033 149.966 248.748C152.091 247.361 159.11 249.033 157.896 252.434V252.453ZM224.488 130.359C223.976 130.758 206.332 144.191 203.733 145.825C202.418 143.772 200.966 141.812 199.388 139.954C201.513 137.598 215.818 127.737 215.818 127.737C216.425 127.737 222.249 128.364 224.488 130.34V130.359ZM186.961 132.962C189.282 132.023 191.665 131.249 194.095 130.644C197.889 139.859 196.903 137.845 197.548 139.479C194.778 140.727 192.079 142.129 189.466 143.678C188.308 140.923 186.582 135.869 186.961 132.962ZM226.803 76.0762V78.4702C221.111 79.2112 221.111 80.3702 221.111 79.6292C224.203 77.8622 226.195 77.3872 226.822 75.9622L226.803 76.0762ZM219.366 90.8202C218.978 90.4752 218.544 90.1874 218.075 89.9652C217.791 89.8132 218.075 89.9652 218.075 89.5282C218.147 89.1772 218.147 88.8154 218.075 88.4642C218.547 88.5887 219.03 88.6651 219.517 88.6922C219.422 89.2622 219.403 90.0602 219.384 90.7442L219.366 90.8202ZM213.181 80.6172C212.574 81.4342 211.853 82.2702 211.283 83.1252C212.123 79.7938 213.87 76.7614 216.33 74.3662C217.14 73.8441 217.913 73.2664 218.645 72.6372C220.997 69.9202 216.747 67.1462 213.294 70.2432C210.729 72.4507 208.972 75.4532 208.305 78.7742C207.812 81.3012 208.551 80.9972 207.641 80.7692C206.807 80.4674 205.894 80.4674 205.061 80.7692C204.454 78.9832 200.469 79.0022 199.122 79.9712C198.572 80.3702 198.952 80.2942 198.515 79.9712C197.666 79.7322 196.775 79.6849 195.906 79.8328C195.036 79.9807 194.211 80.32 193.488 80.8262C193.317 80.9402 192.71 81.7002 192.368 82.0612C191.622 82.024 190.876 82.1538 190.187 82.4412C189.473 82.7686 188.915 83.3616 188.631 84.0942V84.5312C188.292 84.4696 187.945 84.4696 187.606 84.5312C186.329 85.0651 185.313 86.0825 184.78 87.3622C184.469 87.9446 184.382 88.6199 184.533 89.2622C182.882 90.1552 181.156 91.4473 181.44 93.3092C181.599 93.7768 181.836 94.2138 182.142 94.6012C181.668 94.9434 180.378 95.0954 180.644 97.9834L179.221 97.8694C178.234 92.8722 177.627 61.8832 178.12 61.5412C180.378 60.4962 215.457 60.3632 219.081 61.3702C219.508 65.663 219.685 69.977 219.612 74.2902C217.065 75.907 214.881 78.0355 213.2 80.5412L213.181 80.6172ZM225.19 110.067C222.859 110.691 220.467 111.054 218.056 111.15C218.39 110.906 218.645 110.568 218.786 110.179C218.928 109.79 218.951 109.367 218.853 108.965C219.225 108.894 219.574 108.736 219.872 108.5C220.169 108.265 220.405 107.962 220.561 107.616C220.769 107.052 220.769 106.432 220.561 105.868C220.447 105.602 220.333 105.868 220.921 105.545C221.274 105.378 221.587 105.137 221.839 104.839C222.092 104.54 222.277 104.191 222.383 103.815C222.489 103.438 222.513 103.044 222.454 102.657C222.395 102.271 222.254 101.901 222.041 101.574C222.333 101.237 222.52 100.823 222.58 100.38C222.641 99.9385 222.572 99.4882 222.382 99.0854C222.07 98.5335 221.592 98.0946 221.016 97.8314C221.299 97.3564 221.418 96.8026 221.357 96.2535C221.295 95.7044 221.055 95.1914 220.675 94.7914C220.675 93.1572 220.826 91.1052 220.902 88.8062C222.858 88.8248 224.778 89.3414 226.48 90.3072C226.366 93.4042 225.949 107.179 225.209 109.991L225.19 110.067ZM118.586 110.067C116.044 99.1424 114.488 6.15628 116.12 4.48428C119.269 1.02628 218.474 -0.246726 225.512 3.19228C225.86 4.43361 226.082 5.70661 226.176 6.99228C227.542 20.9572 227.144 60.1922 226.897 74.5752C226.006 72.4662 223.198 72.6752 221.073 73.4922C221.121 69.2908 220.913 65.0902 220.447 60.9142C220.426 60.7063 220.345 60.5089 220.214 60.3467C220.083 60.1845 219.906 60.0648 219.707 60.0022C216.387 58.8052 179.202 59.6032 177.722 61.0092C176.811 61.9022 177.134 95.2094 178.12 98.4964C178.18 98.6361 178.277 98.7558 178.401 98.8432C178.525 98.9306 178.671 98.9809 178.822 98.9904C179.354 98.9904 180.587 99.1614 181.004 99.1804C181.327 99.7694 181.839 99.8834 182.123 100.13C181.956 100.269 181.824 100.449 181.741 100.65C181.659 100.852 181.627 101.072 181.649 101.289C181.752 102.276 182.134 103.211 182.75 103.987C183.66 105.07 184.495 104.747 185.425 104.747C185.614 106.324 186.013 108.927 186.601 111.815C173.017 111.834 124.733 111.112 118.605 109.934L118.586 110.067ZM198.022 123.367C197.809 123.191 197.539 123.097 197.263 123.101C195.618 123.071 194.01 122.612 192.596 121.771C191.092 120.243 189.888 118.445 189.048 116.47C187.574 111.455 186.645 106.295 186.278 101.08C186.449 98.7244 188.821 95.8174 193.108 94.9244C196.489 94.3291 199.971 94.7591 203.107 96.1594C205.63 97.1664 209.121 101.194 210.525 103.379C210.589 103.47 210.687 103.532 210.796 103.553C210.905 103.574 211.019 103.553 211.113 103.493C211.708 103.109 212.345 102.789 213.01 102.543C213.575 102.41 214.17 102.505 214.667 102.808C215.163 103.11 215.522 103.594 215.666 104.158C216.653 106.4 212.953 110.143 212.441 110.865C212.37 111.055 212.37 111.264 212.441 111.454C213.487 116.568 214.235 121.738 214.679 126.939C214.053 127.3 213.276 127.889 206.806 132.753C204.023 134.532 201.361 136.493 198.838 138.624C198.136 136.382 196.352 132.43 195.442 130.435C198.439 123.709 198.477 123.747 198.041 123.31L198.022 123.367ZM150.877 175.427C158.465 161.025 170.342 139.935 186.278 133.456C186.204 137.499 187.02 141.508 188.669 145.198C188.731 145.289 188.816 145.362 188.913 145.413C189.01 145.463 189.118 145.49 189.229 145.49C189.339 145.49 189.447 145.463 189.543 145.413C189.641 145.362 189.725 145.289 189.788 145.198C190.519 144.573 191.329 144.05 192.198 143.64C192.551 145.007 193.157 146.295 193.981 147.44C193.564 149.834 185.956 181.184 186.392 183.027C187.737 186.518 189.515 189.824 191.685 192.869C192.103 193.439 192.558 193.876 193.146 193.401C196.008 190.497 198.391 187.156 200.204 183.502C200.318 183.103 200.356 183.369 199.047 148.124C199.673 147.402 200.944 145.882 201.532 145.008C203.088 147.193 202.215 146.908 202.765 147.345C203.315 147.782 203.638 147.535 204.112 147.345C207.223 145.559 223.084 133.285 225.569 130.91C228.657 132.322 231.61 134.014 234.391 135.964C246.856 143.944 249.569 157.909 250.878 172.615C251.751 182.951 250.442 191.729 242.815 198.303C237.778 202.392 231.85 205.237 225.512 206.606C221.377 207.632 203.391 210.273 199.976 210.748C198.477 206.047 196.742 201.423 194.778 196.897C200.982 194.199 212.118 190.228 218.455 188.081C218.565 188.051 218.661 187.983 218.727 187.89C218.793 187.795 218.824 187.682 218.815 187.568C218.398 182.248 217.848 168.359 219.897 163.419C220.049 163.077 219.498 162.849 219.347 163.191C217.146 168.226 217.449 181.735 217.753 187.226C211.245 189.316 200.488 192.926 194.228 195.643C193.962 195.073 193.943 194.807 193.412 194.75C191.799 194.617 185.595 197.258 184.742 198.873C184.362 199.576 185.519 203.129 185.918 204.402C181.972 204.744 176.432 206.055 173.814 209.095C171.911 208.554 170.068 207.822 168.312 206.91C169.147 201.21 173.738 192.147 176.622 187.34C177.722 185.44 179.107 173.109 179.24 171.076C179.345 169.26 179.345 167.44 179.24 165.623C179.223 165.558 179.185 165.5 179.132 165.458C179.078 165.417 179.013 165.394 178.946 165.394C178.878 165.394 178.813 165.417 178.76 165.458C178.707 165.5 178.668 165.558 178.652 165.623C178.538 166.801 178.329 168.169 178.082 169.727C177.969 170.582 176.622 184.471 175.237 186.827C170.835 193.078 162.696 204.516 157.991 210.558C157.82 209.798 152.167 184.452 151.066 183.768C149.937 183.41 148.759 183.237 147.575 183.255C148.502 180.576 149.605 177.961 150.877 175.427ZM106.387 185.953C112.325 185.345 148.126 183.54 150.459 184.699C150.573 185.592 153.058 192.147 155.202 202.35C156.815 209.95 158.997 217.55 159.414 220.077C158.427 220.077 118.283 218.481 116.423 218.177C114.982 214.928 107.355 189.753 106.387 185.953ZM24.4091 239.229C23.2707 237.329 19.3625 220.039 21.0131 217.721C23.1379 214.757 26.7047 225.511 27.8809 227.62C30.1576 232.085 34.1038 231.059 43.7605 229.52C44.102 230.527 44.2158 231.42 45.0885 231.42C45.2345 231.418 45.3778 231.38 45.506 231.31C45.6344 231.24 45.744 231.141 45.8259 231.02C45.9078 230.899 45.9593 230.759 45.9762 230.615C45.9932 230.469 45.9751 230.322 45.9233 230.185C45.7715 229.805 45.6577 229.444 45.5628 229.14C52.8291 227.981 52.0513 227.924 52.0702 228.228C52.0702 228.465 52.1642 228.692 52.3315 228.86C52.4986 229.027 52.7254 229.121 52.9619 229.121C53.1984 229.121 53.4252 229.027 53.5925 228.86C53.7597 228.692 53.8536 228.465 53.8536 228.228V227.791C58.7104 226.917 63.5483 225.891 68.4051 225.074C68.4051 225.34 68.5379 225.587 68.6328 225.834C68.7109 226.059 68.8746 226.243 69.088 226.346C69.3016 226.449 69.5472 226.463 69.7711 226.385C69.9951 226.308 70.1788 226.143 70.282 225.929C70.3851 225.716 70.3994 225.47 70.3213 225.245C70.3213 225.074 70.3213 224.903 70.1695 224.751C75.4627 223.763 80.0539 222.851 85.2143 222.167V223.459C85.2243 223.576 85.2573 223.69 85.3113 223.795C85.3653 223.899 85.4393 223.992 85.5292 224.068C85.619 224.144 85.723 224.201 85.8349 224.237C85.9469 224.273 86.0648 224.286 86.1819 224.276C86.299 224.266 86.413 224.234 86.5174 224.18C86.6218 224.125 86.7144 224.051 86.7902 223.961C86.8659 223.871 86.9233 223.767 86.9589 223.655C86.9945 223.543 87.0077 223.424 86.9977 223.307V221.92C96.4839 220.533 98.2103 220.704 102.783 220.02L103.105 220.913C103.215 221.103 103.391 221.247 103.599 221.318C103.807 221.389 104.034 221.382 104.237 221.299C104.44 221.216 104.607 221.062 104.705 220.865C104.804 220.668 104.829 220.442 104.775 220.229C104.703 220.068 104.64 219.903 104.585 219.735C108.019 219.165 111.434 218.443 114.887 217.835C115.494 219.431 115.418 219.412 117.277 219.564C117.486 219.564 118.169 227.335 120.673 241.281C99.3486 242.459 58.4638 243.181 38.3345 239.989C37.1203 239.799 35.2231 239.723 35.4128 239.723C33.231 236.816 29.2279 231.287 27.5205 234.441C26.7294 235.952 26.4688 237.686 26.7806 239.362C25.9879 239.376 25.1954 239.331 24.4091 239.229ZM45.5249 242.345C43.3077 242.896 41.1279 243.588 38.9985 244.416C38.0985 243.413 37.256 242.361 36.4753 241.262C38.4483 241.452 39.6815 241.813 45.487 242.345H45.5249ZM11.7737 326.762C11.3563 327.902 8.28286 327.56 6.74613 326.458C5.55089 325.584 5.15248 329.555 13.614 276.735C16.2407 277.263 18.8945 277.644 21.5633 277.875C16.0045 306.337 12.6844 324.235 11.7737 326.762ZM67.6083 323.912C67.6083 324.767 67.8549 325.052 66.9822 325.698C65.4834 326.781 62.372 327.18 61.9357 326.021C60.9871 323.475 57.2875 303.525 52.1841 277.267C54.8264 276.839 57.4423 276.262 60.0195 275.538C62.1823 289.085 67.4755 322.43 67.6083 323.817V323.912ZM37.2531 268.394C26.4011 268.394 3.29326 267.995 -2.17067 258.552C0.637182 247.513 16.0614 243.941 27.3687 242.782C28.3199 246.458 29.4854 250.074 30.8595 253.612C31.5295 255.27 32.7858 256.623 34.3883 257.412C35.6787 257.752 37.0278 257.801 38.3395 257.558C39.6514 257.315 40.8934 256.785 41.9771 256.006C68.3672 253.27 58.331 255.094 77.6445 254.429C70.6438 265.278 50.3628 268.318 37.2721 268.299L37.2531 268.394ZM54.5366 253.441C54.0623 253.441 41.7115 254.448 41.2562 254.714C40.3446 255.376 39.3043 255.837 38.2027 256.07C37.1012 256.302 35.9632 256.3 34.8626 256.063C33.6295 255.419 32.6671 254.354 32.1496 253.061C30.9923 250.154 26.1355 236.854 28.8295 235.182C30.8595 235.448 36.9306 245.271 38.4104 245.974C38.5309 246.036 38.6641 246.068 38.7993 246.068C38.9346 246.068 39.0679 246.036 39.1882 245.974C42.6369 244.622 46.1901 243.555 49.8126 242.782C73.4291 244.017 97.0986 243.826 120.692 242.212C120.91 243.561 121.215 244.893 121.603 246.202C121.634 246.28 121.683 246.35 121.745 246.406C121.808 246.462 121.883 246.503 121.963 246.525C123.86 247.133 126.194 247.893 129.097 248.71C78.9346 254.923 68.1964 252.32 54.5556 253.346L54.5366 253.441ZM132.777 317.775C132.36 318.915 129.267 318.554 127.75 317.452C126.573 316.616 125.985 321.518 135.452 262.523C137.843 263.264 140.537 263.967 143.402 264.575C136.932 297.692 133.745 315.153 132.796 317.68L132.777 317.775ZM194.493 317.3C194.379 318.497 191.325 318.972 189.561 318.307C188.157 317.775 188.84 321.898 183.034 266.855C185.69 266.551 188.365 266.209 191.059 265.829C193.26 297.141 194.759 314.583 194.512 317.262L194.493 317.3ZM226.309 257.184C228.833 256.196 231.337 255.132 233.765 253.973L242.132 287.09C239.854 287.499 237.623 288.135 235.473 288.99C233.101 280.516 228.681 265.297 226.328 257.089L226.309 257.184ZM249.721 287.869C254.287 288.039 258.808 288.844 263.153 290.263C264.695 290.693 266.215 291.2 267.706 291.783C272.357 293.91 276.537 296.947 280 300.713C283.377 304.703 284.136 309.89 283.794 315.153C283.548 318.326 281.499 320.397 279.013 322.411C278.748 320.264 275.219 318.611 273.17 318.288C272.867 318.288 272.829 318.402 273.644 317.946C275.103 317.135 276.271 315.886 276.983 314.374C277.249 314.089 276.813 313.69 276.566 313.975C274.498 315.4 273.398 316.54 270.609 318.288C270.419 318.288 270.457 318.744 269.243 318.687C267.553 318.288 265.819 318.096 264.083 318.117C263.224 315.954 262.901 313.615 263.138 311.299C263.376 308.984 264.169 306.76 265.449 304.817C268.712 300.428 269.945 302.024 269.945 301.207C269.945 299.934 261.635 302.233 261.73 312.379C261.799 314.384 262.36 316.342 263.362 318.079C261.105 318.192 258.884 318.693 256.797 319.561C256.361 319.162 254.54 320.112 253.363 319.561C254.366 316.162 254.739 312.607 254.464 309.073C254.18 306.964 253.29 304.984 251.903 303.373C250.353 301.605 248.401 300.236 246.211 299.383C241.696 297.749 240.159 300.048 237.484 300.903C237.041 301.053 236.561 301.053 236.118 300.903C234.41 300.352 229.8 299.003 228.795 300.542C228.017 301.701 229.155 303.411 229.895 304.703C230.635 305.995 230.882 306.071 229.648 309.206C229.281 310.246 228.797 311.24 228.206 312.17C227.239 313.177 223.995 313.918 223.388 315.096C222.154 317.376 226.84 319.675 227.713 320.796C228.586 321.917 230.104 323.988 230.919 324.862C234.012 328.244 241.582 329.023 245.509 327.769C247.403 327.171 249.115 326.098 250.48 324.653C251.675 325.66 251.447 327.237 251.125 328.814C250.935 329.726 249.967 330.258 249.227 330.714C246.79 332.29 243.905 333.025 241.013 332.804C240.258 332.559 239.529 332.248 238.831 331.873C236.937 331.421 235.13 330.664 233.481 329.631C232.047 328.179 230.371 326.99 228.529 326.116C219.555 323.817 217.848 313.025 220.675 304.551C224.165 293.797 238.148 287.565 249.74 287.774L249.721 287.869ZM243.536 327.256C245.433 323.988 244.352 319.656 242.303 316.616C239.836 312.816 237.636 314.146 235.947 313.272C233.557 312.018 233.196 310.612 232.247 309.928C231.792 309.63 231.292 309.406 230.768 309.263C231.211 308.297 231.487 307.263 231.583 306.204C231.451 304.912 229.364 302.138 229.686 301.511C230.692 301.036 234.429 302.081 235.492 302.442C237.522 303.126 239.855 301.207 241.639 300.542C244.579 299.573 248.696 302.062 250.688 304.342C253.933 308.142 253.212 312.797 252.244 317.642C251.986 319.945 251.006 322.106 249.445 323.816C247.883 325.527 245.822 326.698 243.555 327.161L243.536 327.256ZM239.855 321.366C240.007 321.632 239.647 321.993 239.324 321.651C239.077 321.407 238.894 321.106 238.792 320.776C238.689 320.444 238.67 320.092 238.736 319.751C238.767 319.411 238.897 319.088 239.11 318.821C239.321 318.555 239.608 318.357 239.931 318.25C240.443 318.079 240.5 318.554 240.311 318.706C240.045 319.071 239.868 319.492 239.792 319.938C239.716 320.382 239.744 320.839 239.874 321.271L239.855 321.366ZM295.671 331.816C295.671 332.88 295.899 334.552 295.197 335.236C294.836 335.597 289.865 334.818 284.781 335.559C282.884 335.844 280.854 336.281 278.9 336.547C267.953 338.105 271.311 336.832 254.976 341.772C252.358 342.551 249.683 343.064 247.046 343.767C241.923 345.154 239.704 346.845 236.004 347.757C230.104 349.239 229.079 346.009 226.139 342.437C222.003 337.383 220.807 331.341 217.336 326.42C210.506 316.749 208.722 318.193 205.212 315.191C204.522 314.621 203.954 313.917 203.543 313.12C203.482 313.02 203.451 312.905 203.451 312.788C203.451 312.671 203.482 312.556 203.543 312.455C204.468 311.31 205.554 310.305 206.768 309.472C208.306 308.45 209.923 307.553 211.606 306.793C214.224 305.368 217.734 303.183 220.011 302.195C215.704 311.315 217.241 324.995 227.979 327.579C228.664 327.813 229.305 328.16 229.876 328.605C231.207 329.835 232.671 330.912 234.24 331.816C235.53 332.386 236.991 332.69 238.281 333.165C239.332 333.789 240.515 334.156 241.734 334.238C242.953 334.321 244.174 334.116 245.3 333.64C247.386 333.011 249.322 331.964 250.992 330.562C251.341 330.198 251.584 329.745 251.694 329.251C252.035 327.351 252.187 325.584 250.745 324.406C251.762 323.156 252.535 321.726 253.022 320.188C253.682 320.432 254.395 320.497 255.09 320.378C252.244 322.715 253.079 324.729 256.74 325.66C260.269 326.535 263.929 326.748 267.535 326.287C271.102 325.964 275.902 326.173 278.786 323.969C281.67 321.765 284.591 319.2 284.952 315.267C285.312 311.334 284.743 310.422 285.312 311.657C286.432 314.051 287.304 316.578 288.594 318.839C290.795 322.639 294.893 324.843 295.481 329.327C295.61 330.12 295.686 330.919 295.709 331.721L295.671 331.816ZM328.398 322.639C328.777 323.342 300.736 325.641 294.058 323.589C293.774 323.247 293.489 322.905 293.167 322.563C291.269 316.236 288.784 299.06 288.025 293.265C302.642 293.32 317.248 292.45 331.756 290.662C331.547 296.058 329.46 319.675 328.417 322.544L328.398 322.639ZM334.089 282.283C334.839 284.651 334.839 287.193 334.089 289.56C333.292 290.814 289.201 292.429 285.843 291.574C284.921 289.367 284.575 286.96 284.838 284.582C284.838 284.582 285.711 284.183 286.621 283.974C296.088 281.77 333.179 280.706 334.184 282.188L334.089 282.283ZM306.845 280.649C301.742 280.858 290.624 281.447 285.824 282.682C284.971 282.91 283.775 283.252 283.548 284.031C282.979 285.836 283.643 291.27 284.914 292.638C285.312 293.094 286.451 293.132 287.285 293.189C287.987 300.238 289.619 313.291 291.08 320.245C287.949 316.559 287.285 312.417 284.686 308.332C284.211 305.198 282.9 302.251 280.892 299.801C277.287 295.849 272.925 292.663 268.067 290.434C266.625 289.845 265.126 289.389 263.381 288.857C256.952 286.625 250.091 285.929 243.346 286.824C242.872 284.924 236.706 262.485 234.259 253.669C246.458 247.627 253.857 236.702 258.429 223.858C259.558 226.771 260.948 229.576 262.584 232.237C264.671 235.657 283.32 254.847 290.643 258.115C293.783 259.415 297.173 259.999 300.566 259.825C301.734 259.791 302.899 259.69 304.057 259.521C304.474 261.307 305.536 266.361 306.94 280.554L306.845 280.649ZM352.17 231.42C344.201 242.934 337.125 245.271 325.381 251.104C319.256 254.049 312.848 256.366 306.257 258.02C308.06 253.593 313.163 248.064 316.388 244.72C324.341 236.642 332.755 229.029 341.583 221.92C341.643 221.875 341.684 221.807 341.694 221.732C341.705 221.658 341.686 221.581 341.64 221.521C341.595 221.461 341.527 221.421 341.452 221.41C341.378 221.4 341.302 221.419 341.242 221.464C323.01 233.852 308.989 249.964 305.669 256.158C305.713 253.834 305.58 251.509 305.271 249.204C306.018 245.728 307.224 242.367 308.856 239.21C310.761 235.9 312.965 232.77 315.44 229.862C322.061 220.685 335.341 207.993 346.155 211.622C354.977 214.491 357.482 223.782 352.264 231.325L352.17 231.42Z" fill="#1638A0" fill-opacity="0.75"/>
<path d="M79.0018 228.737C79.1535 228.736 79.3021 228.696 79.4344 228.622C79.5668 228.547 79.6785 228.441 79.7595 228.313C79.8405 228.185 79.8882 228.038 79.8984 227.886C79.9085 227.735 79.8808 227.583 79.8176 227.445C79.4571 226.647 79.2674 225.887 78.7551 224.956C78.6391 224.75 78.4476 224.597 78.221 224.53C77.9945 224.462 77.7506 224.486 77.5409 224.595C77.4372 224.651 77.3455 224.727 77.2711 224.819C77.1968 224.91 77.1412 225.015 77.1077 225.128C77.0742 225.241 77.0634 225.359 77.0758 225.477C77.0884 225.594 77.1239 225.708 77.1806 225.811C78.0153 227.35 77.9963 228.737 79.0018 228.737ZM62.1167 230.77C62.1314 231.005 62.2363 231.225 62.4096 231.385C62.5829 231.545 62.8112 231.63 63.0463 231.625C63.1635 231.621 63.2785 231.592 63.3849 231.543C63.4912 231.493 63.5867 231.423 63.666 231.337C63.7453 231.25 63.8068 231.149 63.8469 231.039C63.8872 230.929 63.9052 230.811 63.9002 230.694C63.9002 228.794 64.3174 227.274 62.8945 227.179C62.6562 227.203 62.4368 227.321 62.2841 227.505C62.1314 227.691 62.0576 227.928 62.0788 228.167C62.1736 229.079 62.0787 229.782 62.1167 230.77ZM95.4316 225.811C95.4411 225.928 95.4743 226.042 95.5284 226.147C95.5825 226.251 95.6564 226.344 95.7466 226.42C95.8367 226.496 95.9401 226.553 96.052 226.589C96.1639 226.625 96.2825 226.638 96.3992 226.628C96.5159 226.618 96.6306 226.586 96.735 226.532C96.8393 226.477 96.9314 226.403 97.0072 226.313C97.0831 226.223 97.1401 226.119 97.1761 226.007C97.2121 225.895 97.2245 225.776 97.215 225.659C97.215 224.766 97.215 223.968 97.0632 222.942C97.0006 222.73 96.8621 222.548 96.6752 222.43C96.4884 222.312 96.2645 222.266 96.0463 222.301C95.8281 222.336 95.6299 222.449 95.4895 222.619C95.3481 222.79 95.2732 223.006 95.2798 223.227C95.4127 224.082 95.3557 224.88 95.4316 225.811Z" fill="#1638A0" fill-opacity="0.75"/>
</g>
<defs>
<clipPath id="clip0_1_647">
<rect width="353" height="350" fill="white"/>
</clipPath>
</defs>
</svg>
