<svg width="353" height="320" viewBox="0 0 353 320" fill="none" xmlns="http://www.w3.org/2000/svg">
<g clip-path="url(#clip0_1_634)">
<path d="M232.23 46.3147C235.336 48.0058 238.74 45.3855 237.047 45.72C235.657 45.9129 234.239 45.6931 232.974 45.0881C233.586 42.7493 233.935 40.3496 234.015 37.9333C233.42 32.0793 231.132 45.6085 232.23 46.3147ZM241.158 48.9536C239.298 50.812 236.991 52.1686 238.907 51.9642C241.474 51.704 243.204 49.158 242.274 47.82C241.53 48.3032 242.013 48.0802 241.158 48.9536ZM239 36.205C238.442 36.874 239 38.3793 239.13 39.0483C239.17 39.2313 239.278 39.3923 239.432 39.4994C239.585 39.6064 239.774 39.6515 239.959 39.6256C240.145 39.5998 240.314 39.505 240.432 39.3601C240.551 39.2151 240.611 39.0309 240.6 38.8439C240.395 37.1713 239.986 35.0528 239 36.205ZM228.621 39.6244C228.008 35.3501 226.761 37.1899 226.873 37.8961C227.022 40.7581 228.826 41.074 228.621 39.6244ZM237.884 33.2501C248.077 34.2351 237.549 29.8493 236.991 33.1015L237.884 33.2501ZM173.603 109.705C171.482 110.448 171.91 112.697 174.533 111.712C179.895 109.56 185.527 108.153 191.273 107.531C191.273 122.621 190.51 128.475 191.384 128.884C192.333 128.512 193.114 108.274 193.058 106.583C192.891 103.461 176.932 108.516 173.603 109.705ZM155.598 130.593C152.864 136.447 148.028 144.439 153.961 146.464C157.29 147.579 171.389 146.464 168.692 138.901C166.311 132.136 158.76 123.996 155.598 130.593ZM249.193 169.824C246.682 169.1 224.66 164.955 223.581 166.015C221.237 168.375 234.239 167.037 248.784 171.255C248.973 171.309 249.177 171.286 249.35 171.19C249.522 171.095 249.65 170.934 249.704 170.744C249.758 170.554 249.735 170.35 249.639 170.178C249.544 170.006 249.383 169.878 249.193 169.824ZM251.258 159.101C244.882 157.578 238.395 156.572 231.858 156.091C231.66 156.115 231.481 156.217 231.358 156.374C231.236 156.53 231.182 156.729 231.207 156.927C231.231 157.124 231.333 157.303 231.49 157.425C231.647 157.547 231.846 157.602 232.044 157.577C238.378 158.082 244.665 159.07 250.848 160.532C251.038 160.586 251.242 160.563 251.415 160.467C251.587 160.372 251.714 160.211 251.769 160.021C251.823 159.831 251.8 159.627 251.704 159.455C251.608 159.283 251.447 159.155 251.258 159.101ZM106.345 52.6147C103.983 52.8748 103.257 52.2058 103.053 52.7262C102.551 56.1642 111.553 52.466 106.345 52.6147ZM98.5329 38.6209C98.5329 33.9935 97.0449 35.3687 97.0449 38.6209C97.0449 38.8181 97.123 39.0072 97.2625 39.1466C97.402 39.2859 97.5908 39.3643 97.7889 39.3643C97.9861 39.3643 98.1749 39.2859 98.3144 39.1466C98.4539 39.0072 98.5329 38.8181 98.5329 38.6209ZM111.72 36.874C111.736 36.9705 111.771 37.0627 111.823 37.1458C111.874 37.2288 111.942 37.3008 112.021 37.3577C112.1 37.4147 112.19 37.4554 112.285 37.4776C112.381 37.4999 112.479 37.5032 112.576 37.4873C112.672 37.4715 112.765 37.4367 112.847 37.3852C112.93 37.3337 113.003 37.2663 113.06 37.1869C113.116 37.1075 113.157 37.0177 113.179 36.9225C113.202 36.8275 113.206 36.7289 113.19 36.6324C112.502 32.1537 111.181 33.4917 111.72 36.874Z" fill="#1638A0" fill-opacity="0.75"/>
<path d="M319.273 213.601C333.167 202.971 332.702 183.421 332.293 182.789C337.631 177.214 337.78 161.046 336.236 157.719C334.153 153.203 343.453 113.396 328.275 102.302C329.615 101.707 332.163 100.183 332.349 98.1947C332.684 94.2735 328.982 93.6416 326.155 91.9691C314.344 85.0369 313.6 69.6679 290.462 63.9812C289.606 62.4015 289.42 62.1228 288.732 60.9706C305.472 62.1228 303.314 52.9609 300.431 50.6936C298.616 49.6451 296.671 48.8391 294.647 48.2963C301.696 45.3414 301.491 36.4769 292.415 37.2946C291.336 37.3875 294.833 34.5255 291.987 30.8645C291.346 29.877 290.443 29.0877 289.378 28.5854C288.314 28.0829 287.13 27.8876 285.96 28.0211C285.96 21.7955 282.966 19.2681 279.413 19.2681C284.64 11.6115 277.665 3.08144 267.881 7.82033C270.206 2.431 264.012 -7.26985 249.821 3.97347C248.928 0.0708342 236.577 -3.99906 235.238 1.70623C234.55 4.62391 229.658 -3.53446 220.73 3.15578C218.294 5.01418 217.01 8.08051 219.875 9.04688C211.002 9.69732 207.599 17.9486 214.481 19.7327C215.969 20.1229 211.653 21.1265 212.342 26.6645C212.862 30.9017 216.62 33.3362 219.689 31.0132C220.712 30.2512 220.414 30.084 220.321 30.8831C220.295 31.1967 220.334 31.5121 220.433 31.8107C220.532 32.1092 220.691 32.3846 220.899 32.6205C221.108 32.8564 221.362 33.0479 221.645 33.1837C221.93 33.3194 222.238 33.3966 222.553 33.4105C222.834 35.0384 223.264 36.6371 223.836 38.1866C217.103 38.1866 213.104 43.9848 214.89 46.8096C216.954 50.0432 220.581 47.8874 216.043 50.229C207.245 54.7821 209.459 62.3272 214.853 62.2715C220.247 62.2157 216.713 60.2272 217.55 65.6166C218.07 69.1661 223.836 72.6413 228.71 68.1812C230.086 69.8351 230.365 70.8944 232.039 71.7493C218.07 81.0413 222.944 85.5572 204.827 103.807C202.725 105.944 202.112 105.145 201.107 106.13C200.103 107.115 201.479 113.025 206.687 112.597C200.977 129.323 206.687 124.175 198.429 125.049C198.243 125.049 200.605 100.648 200.289 97.2841C200.103 95.6301 199.768 95.6673 181.094 99.923C181.707 87.4714 181.577 61.7325 180.498 61.4723C180.312 61.4723 166.865 61.4723 166.865 61.1192C166.567 59.9299 167.441 54.8193 167.199 53.8529C166.976 53.221 166.232 53.2396 165.637 52.8494C158.42 48.0547 167.497 50.675 168.185 49.9688C169.19 48.8538 168.185 37.6105 170.045 37.6105C171.905 38.5954 170.417 47.9989 171.124 48.891C173.412 50.898 171.849 40.2866 174.323 40.5839C175.681 40.8441 174.137 48.5007 174.658 49.7644C176.351 52.1803 175.755 46.0476 177.764 44.0591C180.108 42.9255 177.653 60.7847 177.392 61.1564C178.341 61.8998 182.507 39.4875 177.039 43.0184C175.439 44.0591 177.039 42.5724 175.867 40.1007C175.216 38.8184 173.356 38.614 172.314 40.4353C171.329 33.9309 168.074 35.5105 167.571 40.0822C167.088 48.7051 167.292 47.4043 167.144 48.9467C162.215 47.0883 158.532 51.4556 165.767 53.9644C166.902 54.3547 165.767 58.4803 166.121 60.8405C166.121 61.2308 166.325 61.1007 165.358 61.0077C161.378 60.5989 149.474 94.6266 145.809 99.5142C150.887 106.948 149.195 108.044 148.73 106.818C143.689 96.4106 122.69 74.6112 99.3466 66.7316C97.4866 66.1369 97.933 66.7316 97.4866 64.3157C96.1288 62.3272 115.975 72.5298 114.227 42.6096C122.615 42.8883 121.388 29.768 114.375 29.3964C119.007 23.7282 117.556 19.0637 112.887 14.1017C110.823 -0.765448 94.8268 -1.09996 80.5974 4.32657C77.2308 5.60887 76.6356 7.61594 74.9058 10.5894C73.2318 10.8495 72.4692 9.64157 69.2328 11.5C59.3934 17.1681 61.7928 33.1875 69.9396 39.6547C68.4702 43.9105 69.7536 48.6308 75.2964 48.2405C75.2964 66.044 76.9146 61.9184 68.433 63.3865C7.98307 73.8493 -8.90573 147.071 17.3016 171.379C18.7524 172.735 12.3912 181.823 23.7372 188.271C24.1008 196.526 26.072 204.632 29.5404 212.133C32.1258 217.708 32.2188 216.5 31.9584 217.318C20.91 252.442 -0.145129 315.144 -0.479929 316.631C-1.68893 322.002 3.59347 323.563 6.03007 319.437C7.10887 317.579 36.8874 237.11 40.719 226.629C42.4533 228.006 44.2601 229.29 46.1316 230.476C45.3318 244.767 40.7562 306.67 41.5746 310.238C41.7275 311.106 42.1661 311.899 42.8207 312.49C43.4755 313.081 44.3088 313.436 45.1889 313.5C46.0689 313.564 46.945 313.332 47.6785 312.843C48.412 312.353 48.9608 311.632 49.2378 310.796C49.5168 309.866 55.4688 268.963 59.0772 236.961C80.4672 245.677 104.703 246.737 109.074 246.792C112.794 320.961 112.236 316.501 120.086 314.234C121.462 313.825 121.499 314.234 121.722 305.443C125.442 308.64 141.81 321.481 146.777 322.448C148.265 322.727 149.641 319.753 147.688 316.315C136.342 296.374 135.096 305.574 145.53 292.398C146.702 295.241 151.241 306.8 152.97 307.079C157.341 307.562 155.667 317.058 158.346 317.151C163.107 317.337 187.79 315.628 189.724 312.896C190.542 311.762 188.775 309.328 186.506 308.305C161.88 299.329 171.905 316.055 170.027 263.369C170.027 262.031 180.647 249.747 185.706 234.137C188.515 225.458 185.706 221.704 187.101 217.411C190.17 207.283 184.739 209.401 195.918 208.825C198.299 213.434 200.066 210.684 201.368 216.259C202.686 222.227 205.445 227.784 209.403 232.446C210.127 223.937 212.005 215.566 214.983 207.562C216.843 207.394 214.741 205.592 210.5 233.579C210.668 233.765 209.961 284.574 212.174 285.614C213.914 286.171 215.723 286.484 217.55 286.544C217.103 286.897 217.401 299.143 217.196 299.143C217.196 299.608 202.13 304.496 200.456 312.059C200.233 313.713 200.196 314.401 201.926 314.401C207.673 314.085 226.998 309.272 228.263 309.272C228.263 311.335 227.947 311.502 229.9 311.483C231.555 311.483 233.62 311.483 234.159 310.721C234.662 309.476 233.508 289.536 233.806 287.213C233.806 287.027 233.49 287.213 238.028 287.213C238.214 313.732 238.419 311.223 240.279 311.762C248.221 313.119 246.77 314.866 249.579 268.368C256.758 274.873 253.559 274.947 262.599 269.149C263.826 270.691 270.039 278.032 270.039 278.088C267.063 283.886 261.892 295.036 266.43 299.887C267.714 300.983 269.22 298.976 281.999 282.121C287.021 275.467 284.398 281.786 287.393 279.221C292.805 274.594 291.113 277.363 276.233 260.08C284.956 253.78 284.007 255.564 277.107 249.06C239.498 213.508 253.076 238.114 300.71 222.373C301.863 234.341 310.605 308.547 312.372 309.829C313.581 310.703 317.58 310.201 318.827 309.643C320.966 308.677 318.306 282.065 314.4 233.858C330.117 276.75 345.815 317.783 345.815 317.969C347.898 322.374 353.088 321.5 352.809 317.133C352.753 317.207 324.611 230.81 319.273 213.601ZM286.351 278.237C285.477 277.326 285.272 276.638 284.491 276.898C283.022 277.642 269.09 297.341 267.081 298.605C262.952 292.509 271.49 278.683 271.062 277.828C270.801 277.475 276.307 275.969 282.519 268.852C289.625 277.066 289.513 275.635 286.332 278.237H286.351ZM281.757 267.867C278.693 271.72 274.902 274.934 270.597 277.326C265.017 271.156 264.254 270.245 263.157 268.907C278.465 259.225 273.666 258.389 281.738 267.867H281.757ZM331.754 183.923C331.437 198.214 326.062 207.339 318.957 212.598C312.279 191.096 314.065 197.619 315.014 190.576C333.614 185.577 331.772 181.86 331.735 183.923H331.754ZM334.599 155.229C330.712 150.899 324.723 149.654 319.161 148.372C323.793 146.011 329.243 143.075 330.619 139.395C332.479 133.3 329.633 118.637 328.48 115.069C323.7 100.109 320.575 104.866 326.62 102.952C338.859 111.204 335.864 136.533 334.581 155.229H334.599ZM261.855 155.526C251.03 156.771 256.889 159.355 254.415 160.804C252.666 161.808 252.071 163.908 254.898 164.521C256.982 164.986 256.758 164.521 255.791 165.134C253.708 166.379 253.169 169.39 260.962 168.609C260.069 170.319 255.587 178.924 254.359 180.447C253.913 181.005 223.427 179.109 203.302 176.731C203.469 176.545 223.037 151.921 227.78 147.702C228.226 147.498 261.26 151.419 261.446 151.419C261.077 152.791 261.216 154.249 261.836 155.526H261.855ZM256.145 167.216C254.75 165.357 264.124 165.785 262.004 163.759C261.818 163.648 243.924 162.774 262.748 160.693C262.919 160.654 263.07 160.553 263.174 160.412C263.277 160.27 263.325 160.095 263.309 159.92C263.294 159.745 263.214 159.581 263.087 159.461C262.96 159.34 262.793 159.269 262.617 159.262C259.269 159.355 257.186 159.968 256.517 159.262C255.419 157.125 261.725 157.143 262.785 156.753C264.645 156.251 261.278 153.036 263.064 151.178C263.994 150.341 266.691 155.675 267.081 156.028C272.494 159.615 293.903 126.684 306.978 125.457C310.215 125.141 301.398 124.751 297.79 128.226C290.35 107.189 290.536 107.933 290.592 107.115C290.834 103.881 294.479 102.506 297.623 103.027C300.766 103.547 301.436 105.591 304.821 105.61C306.552 105.618 308.268 105.279 309.866 104.612C311.463 103.945 312.91 102.963 314.121 101.726C316.514 102.722 319.063 103.294 321.654 103.417C325.857 112.411 327.327 113.285 328.926 123.525C329.763 128.858 331.475 137.89 327.717 141.365C319.812 148.687 266.84 170.877 256.126 167.216H256.145ZM266.058 151.921C269.778 152.404 269.22 151.921 268.495 153.538C267.509 155.601 268.197 154.95 266.04 151.921H266.058ZM226.273 54.2617C216.545 51.2511 226.719 39.8406 226.273 43.4644C226.273 43.6503 225.734 43.8175 225.585 43.9105C223.725 44.9697 221.381 53.2025 229.64 53.537C234.104 53.7414 229.156 55.1724 226.273 54.2617ZM226.719 43.1114C223.929 35.6777 223.818 36.8485 223.204 33.4477C226.924 33.0202 230.942 33.3176 228.524 31.9238C227.203 31.1618 225.901 32.0539 226.496 31.5521C232.076 26.2557 230.086 20.9406 231.202 23.8212C231.739 25.0948 232.589 26.2122 233.674 27.0694C234.759 27.9265 236.044 28.4956 237.408 28.7236C238.771 28.9517 240.172 28.8315 241.477 28.374C242.781 27.9165 243.95 27.1366 244.873 26.107C246.435 30.2512 248.184 32.407 253.113 32.8901C256.405 33.2061 255.884 32.7972 257.13 31.5521C261.911 26.776 266.43 36.1981 260.627 38.9857C258.507 39.7291 261.539 49.2812 267.212 46.8467C271.452 44.9883 270.299 36.1981 265.575 35.845C263.826 35.7149 264.719 35.2689 264.998 35.2317C271.136 34.3583 273.74 44.9512 268.309 47.9618C263.324 50.7308 257.354 44.9512 259.586 39.1715C255.587 39.7105 255.605 44.9326 257.726 48.3706C257.986 48.7795 249.374 49.114 250.174 55.3954C250.713 58.1086 253.894 58.7219 256.628 58.6662C250.806 72.2325 258.228 74.128 264.663 67.6794C265.193 69.3923 265.957 71.0243 266.933 72.5298C269.964 76.3767 237.414 85.9846 238.363 71.0059C240.197 69.9741 241.94 68.7865 243.571 67.4564C243.814 65.6024 243.77 63.7219 243.441 61.8812C242.604 57.0308 234.513 63.8883 226.645 43.0742L226.719 43.1114ZM249.765 106.985C246.045 104.123 240.465 82.6767 239.386 77.5289C253.578 85.8917 266.375 74.9086 265.649 76.4882C263.473 81.0599 251.96 103.733 249.69 106.948L249.765 106.985ZM251.197 119.641C244.408 120.403 242.66 111.278 247.868 109.048C258.023 105.294 260.999 118.507 251.197 119.641ZM234.903 72.6785C234.903 72.6785 236.577 71.8236 237.712 71.1918C237.526 75.4103 239.516 76.1723 234.903 72.6413V72.6785ZM202.465 109.624C199.935 105.796 203.246 108.081 211.523 98.808C217.977 91.5974 224.729 76.1165 232.932 72.79C233.397 73.1988 235.889 75.1502 238.27 76.8041C239.665 85.8174 244.408 102.822 247.905 107.208C248.072 107.412 239.628 110.126 245.394 118.953C255.512 127.056 263.808 109.661 252.462 107.338C249.802 106.818 251.271 110.423 264.031 82.0262C267.751 73.6634 265.798 76.451 268.923 74.1095C271.62 75.5776 279.116 76.0794 279.116 68.0511C285.44 73.2732 293.382 71.2847 291.299 65.7095C310.271 70.8573 312.558 82.1377 321.245 90.0917C326.825 95.2584 331.326 94.7009 330.879 98.0089C330.879 99.6257 325.485 103.788 317.115 101.447C314.251 100.648 313.935 100.053 313.395 100.722C312.15 102.069 310.601 103.099 308.876 103.725C307.151 104.353 305.302 104.559 303.482 104.327C301.901 103.919 301.008 102.971 298.776 102.172C295.744 101.298 291.336 102.172 289.978 105.331C285.588 87.6758 286.797 85.3342 285.793 84.3307C281.887 88.3076 294.888 123.766 296.655 129.156C293.493 131.014 285.309 139.135 282.724 141.718C282.073 142.369 268.551 139.284 223.632 139.061C227.501 131.349 233.955 126.442 234.29 125.513C234.401 124.9 226.719 117.188 228.133 108.676C230.272 95.6673 235.852 88.4935 233.49 90.6306C229.026 97.5814 225.548 105.368 227.277 113.582C226.48 114.155 225.559 114.528 224.588 114.674C223.618 114.819 222.626 114.732 221.697 114.419C217.977 113.025 217.085 107.375 207.189 111.445C206.311 111.686 205.377 111.639 204.527 111.312C203.676 110.984 202.953 110.392 202.465 109.624ZM207.84 112.486C211.226 111.91 213.83 110.627 216.08 112.021C217.94 113.173 221.474 118.488 227.426 115.143C229.063 117.541 228.486 121.165 232.616 125.327C215.225 142.499 225.789 147.405 196.271 146.978C196.718 142.425 197.741 131.534 198.243 125.68C207.357 124.603 201.461 130.68 207.84 112.486ZM198.726 97.7859C198.726 106.297 194.839 147.647 193.89 156.102C185.093 159.039 127.321 175.263 107.289 178.403C107.698 166.379 111.232 130.921 114.468 119.325C124.438 114.419 189.073 99.1982 198.726 97.7859ZM66.666 159.689C72.246 155.972 100.258 149.858 108.833 147.888C108.833 148.334 108.516 150.602 108.461 151.048C63.5784 160.21 72.5622 162.235 66.7218 159.689H66.666ZM116.886 76.228C106.284 100.852 105.726 93.5859 115.231 96.5407C116.217 96.8567 101.579 127.762 101.523 128.784C99.2722 173.2 100.146 119.269 104.536 74.89C105.15 68.7759 102.695 67.6051 116.905 76.228H116.886ZM104.834 140.566C104.834 140.763 104.755 140.952 104.615 141.091C104.476 141.231 104.287 141.31 104.09 141.31C103.892 141.31 103.703 141.231 103.563 141.091C103.424 140.952 103.346 140.763 103.346 140.566C103.327 136.366 104.834 134.173 104.834 140.566ZM97.933 66.936C106.433 69.8537 104.424 67.3263 103.104 80.9298C103.104 80.5395 101.374 79.5174 97.3936 75.4661C99.1792 73.8493 98.398 69.2962 97.933 66.936ZM98.1562 85.8174C99.421 85.5015 99.607 82.1006 99.7186 79.759C103.922 83.6616 103.029 80.7625 102.099 91.7089C99.607 85.1855 99.6256 85.5758 99.2908 85.4271C98.8258 86.3563 96.352 87.5085 95.0686 86.4864C94.9384 87.8059 95.6452 103.027 95.7568 107.319C65.3454 54.0016 85.3218 93.846 91.1808 83.067C96.5938 86.4492 94.678 86.6908 98.1934 85.8174H98.1562ZM114.431 30.4371C120.011 30.3256 120.867 40.9184 114.673 41.16C108.479 41.4016 108.33 30.5486 114.431 30.4371ZM109.093 23.2079C109.539 24.676 110.358 27.668 110.953 30.3999C107.996 32.8716 109.837 34.8601 107.642 35.1946C107.233 34.1539 107.233 33.5592 106.675 34.1539C106.675 35.6963 107.177 35.2689 105.094 35.6592C101.579 36.291 104.201 35.9193 102.062 33.4663C101.304 32.5151 100.3 31.7901 99.1587 31.3703C98.0167 30.9507 96.7817 30.8525 95.5875 31.0864C94.3934 31.3204 93.2867 31.8775 92.3883 32.6971C91.4902 33.5165 90.8343 34.5669 90.4926 35.7335C88.8744 35.7335 83.871 35.5477 83.0526 35.4176C81.9366 32.1282 79.9278 20.4017 79.9092 20.253C93.841 28.876 105.54 26.2185 109.093 23.2079ZM102.397 39.9335C101.244 43.3901 93.8596 44.6352 91.9992 39.0972C89.0418 30.4371 105.95 29.1176 102.36 39.9335H102.397ZM72.246 46.8281C69.828 45.583 69.2142 38.0937 73.455 37.5361C76.2078 37.2016 77.6772 40.2494 78.7746 40.7512C81.6018 42.0149 83.3502 40.2494 83.3502 37.1273H90.2694C89.8788 46.791 105.15 46.4193 103.532 37.2946C108.182 37.0901 106.08 34.1167 108.349 44.1706C106.861 44.8954 104.331 45.2299 104.22 45.6388C104.741 46.4565 109.8 45.9919 109.8 44.022C109.223 40.6583 108.795 38.6326 108.498 37.5176C108.832 38.5574 109.378 39.5168 110.101 40.3356C110.825 41.1544 111.71 41.8147 112.701 42.2751C112.813 43.706 112.832 44.7839 112.869 46.6795C113.445 69.3891 96.1288 60.7662 95.9056 63.4051C95.9056 64.3343 98.119 72.6971 96.5566 74.1652C91.9434 73.0502 77.0634 63.5909 76.5984 62.3644C76.5798 41.0114 76.5426 49.0211 72.246 46.8281ZM93.4876 74.7042C92.1221 78.0701 90.499 81.3257 88.6326 84.4422C76.2636 76.1723 74.85 71.3219 70.6092 63.8883C80.5974 62.1785 70.5906 64.0555 93.4876 74.7227V74.7042ZM69.3072 64.4458C104.052 123.915 100.5 113.527 99.8302 123.172C95.2546 120.347 70.6092 104.848 67.5774 102.395C68.3028 100.239 75.594 93.5859 76.0032 92.3593C76.4124 91.1324 53.8878 68.7573 53.9622 68.7387C58.9243 66.9107 64.0246 65.4814 69.2142 64.4644L69.3072 64.4458ZM42.4674 148.074C45.4992 148.799 44.7924 149.301 45.4434 148.241C53.4972 135.233 57.1614 110.85 57.5148 110.553C58.5936 111.873 55.8408 133.895 46.6152 147.721C44.8668 150.341 44.8482 147.721 49.926 153.687C64.4526 150.137 89.5812 147.517 109.205 145.454C109.205 145.937 109.056 146.718 109 147.312C96.259 149.858 56.7522 156.233 64.9362 164.186C67.503 166.361 105.299 180.912 107.14 179.054C126.317 176.601 190.096 159.336 194.783 157.385C195.285 157.05 195.23 157.831 196.16 148.297C207.171 148.669 211.04 150.156 217.94 145.119C219.942 143.673 221.744 141.967 223.297 140.046C241.618 140.269 263.343 140.994 281.608 143.056C263.268 161.808 273.796 151.717 268.96 151.066C260.832 149.951 227.463 146.885 227.668 147.201C227.147 146.476 203.042 174.203 201.628 176.768C200.214 179.332 254.043 182.901 255.196 181.693C256.349 180.485 261.65 170.319 262.636 168.517C272.085 167.29 284.956 165.506 317.413 149.356C345.499 156.381 336.627 169.446 322.993 174.556C318.231 176.415 272.531 189.609 210.947 194.2C98.3422 202.581 30.7308 179.332 34.3764 179.332C35.2878 179.332 35.697 178.143 37.278 175.207C45.2388 182.213 65.4384 188.383 60.435 181.916C61.4711 182.068 62.5239 182.068 63.5598 181.916C65.5314 181.47 65.6616 179.593 64.0806 178.199C63.2808 177.511 63.1692 177.734 63.876 177.678C66.9636 177.455 67.1496 175.058 64.7502 173.702C61.5138 171.843 55.8222 172.048 54.1854 169.074C52.995 166.918 57.2358 164.744 55.7664 162.384C54.7434 160.748 53.1066 161.417 51.507 162.495C48.2706 164.744 49.4424 164.93 47.1174 162.793C51.3582 159.838 52.6974 161.287 52.0092 159.187C51.2135 156.865 49.8781 154.766 48.1127 153.06C46.3474 151.354 44.2023 150.091 41.8536 149.375C26.397 146.216 20.9286 156.809 20.445 156.809C19.4034 154.002 28.815 144.878 42.3744 148.037L42.4674 148.074ZM53.8506 170.672C56.064 173.441 65.178 173.962 65.0106 175.969C64.2294 178.087 53.9436 172.921 54.4086 175.653C54.7062 176.471 55.3014 176.043 58.947 177.307C66.108 179.816 65.7174 182.417 54.9294 178.775C52.9392 178.106 52.6602 178.775 52.9764 179.5C53.2926 180.224 59.97 181.655 59.598 183.217C59.2074 184.424 43.5834 179.871 37.65 174.612C39.8194 170.222 42.8937 166.339 46.671 163.22C48.1776 164.688 48.81 165.357 49.182 165.227C49.554 165.097 54.9108 160.414 55.1154 163.369C55.1526 165.376 50.856 167.03 53.7576 170.635L53.8506 170.672ZM24.537 188.699C40.9236 197.749 41.5002 187.231 32.5164 215.85C27.7366 207.541 24.9719 198.23 24.444 188.662L24.537 188.699ZM4.61647 318.917C3.94687 320.218 0.896469 321.203 1.67767 317.058C5.08147 299.478 28.5174 237.147 39.3612 194.664C43.4532 195.947 46.206 196.708 50.3166 197.768C47.2476 206.298 5.37907 317.746 4.61647 318.917ZM48.4752 306.744C47.6382 312.32 43.3416 312.635 42.8952 306.633C42.3744 298.66 45.0156 277.79 46.8012 230.94C50.458 233.149 54.2755 235.081 58.2216 236.72C57.4962 242.388 50.9304 290.446 48.4752 306.744ZM119.862 312.766C113.464 315.219 114.766 317.597 110.097 246.792C110.972 246.792 116.291 246.885 121.016 246.476C120.476 280.467 120.588 308.082 119.862 312.766ZM41.091 225.662C49.2564 203.362 40.5144 216.575 63.5784 227.744C84.0384 237.649 102.49 238.894 125.275 238.578C126.354 241.626 127.135 243.912 127.302 244.153C105.466 248.168 61.8486 242.295 41.091 225.662ZM121.815 301.578C122.913 237.296 119.063 247.108 127.805 245.603C131.283 255.211 132.994 259.764 134.203 263.016C122.187 295.52 122.597 293.903 123.787 294.609C125.48 295.724 125.089 294.163 121.815 301.578ZM144.842 290.985C142.512 294.044 140.029 296.984 137.402 299.794C133.08 298.049 128.895 295.98 124.884 293.605C124.717 293.494 132.845 269.316 134.556 263.871C143.801 288.755 145.047 290.725 144.842 290.985ZM167.943 302.321C167.013 302.6 157.007 304.997 153.268 305.611C106.954 210.256 149.12 244.934 92.8738 235.809C79.8534 233.672 62.016 228.227 51.8604 218.619C44.0484 211.185 45.4992 213.973 51.042 197.991C54.018 198.585 94.7896 209.68 160.559 209.68C170.064 234.044 169.301 294.33 167.943 302.321ZM169.803 260.545C168.892 246.885 168.074 226.22 162.01 209.662C183.307 209.773 180.777 208.918 181.652 210.015C192.979 224.194 180.089 246.012 169.822 260.545H169.803ZM185.706 216.556C183.084 207.617 178.564 209.773 186.897 209.327C186.688 211.762 186.297 214.179 185.725 216.556H185.706ZM200.382 211.576C195.732 208.212 198.206 208.844 200.196 208.732C200.345 211.706 200.605 211.724 200.4 211.576H200.382ZM232.671 310.071C228.821 310.071 229.565 310.963 229.472 308.789C229.342 306.094 208.324 313.119 201.572 313.119C202.205 307.543 212.732 302.563 217.866 300.314C217.866 300.314 219.038 300.314 222.999 300.742C235.833 302.098 232.69 296.412 232.69 310.071H232.671ZM217.791 286.748C226.533 287.491 233.025 287.138 233.006 287.324C232.69 289.647 233.006 299.311 232.634 299.385C227.842 300.291 222.919 300.246 218.145 299.255C217.866 286.06 218.015 287.529 217.791 286.748ZM22.8444 185.986C19.8684 184.127 17.4318 182.473 18.8454 173.163C43.4346 193.977 188.106 213.546 319.18 177.084C334.06 172.94 336.255 165.32 336.236 165.933C335.753 182.863 330.805 185.465 315.888 189.461C191.528 222.708 52.5114 205.35 22.8444 185.986ZM239.925 310.275C239.442 307.172 239.293 290.911 239.256 287.268C243.162 287.157 241.99 290.39 244.055 263.853C244.185 263.964 245.915 232.892 247.049 224.454C247.198 223.284 247.682 223.005 247.644 224.454C247.644 225.384 247.644 226.61 247.551 228.171C246.008 271.342 243.831 263.481 248.109 267.198C244.873 312.58 246.361 312.728 239.925 310.275ZM253.764 227.298C253.317 227.298 254.08 227.874 247.923 222.261C251.922 221.723 286.983 221.518 304.784 207.673C306.29 211.892 305.937 210.907 308.634 218.322C292.768 224.993 270.485 228.078 253.764 227.298ZM313.154 308.696C312.875 308.361 303.091 238.244 301.268 222.28C311.201 219.121 307.927 216.408 313.061 230.457C317.915 304.905 321.133 312.691 313.154 308.696ZM347.508 318.136C347.043 317.319 303.761 202.916 300.822 194.181C304.542 193.289 309.285 192.1 312.112 191.356C322.491 234.1 348.177 301.504 350.521 317.096C351.098 320.887 348.884 320.682 347.508 318.136Z" fill="#1638A0" fill-opacity="0.75"/>
</g>
<defs>
<clipPath id="clip0_1_634">
<rect width="353" height="320" fill="white"/>
</clipPath>
</defs>
</svg>
