<svg width="20" height="20" viewBox="0 0 20 20" fill="none" xmlns="http://www.w3.org/2000/svg">
<path d="M9.36416 1.83368C9.59958 1.26767 10.4014 1.26768 10.6368 1.83369L12.5732 6.48918C12.6724 6.7278 12.8968 6.89083 13.1544 6.91149L18.1804 7.31441C18.7915 7.36341 19.0392 8.12597 18.5737 8.52475L14.7444 11.805C14.5482 11.9731 14.4624 12.2369 14.5224 12.4882L15.6923 17.3927C15.8346 17.9891 15.1858 18.4603 14.6627 18.1408L10.3597 15.5126C10.1392 15.3779 9.86183 15.3779 9.64133 15.5126L5.33833 18.1408C4.81519 18.4603 4.1665 17.9891 4.30874 17.3927L5.47865 12.4882C5.53861 12.2369 5.4529 11.9731 5.25663 11.805L1.42735 8.52475C0.961789 8.12597 1.20956 7.36341 1.82062 7.31441L6.84662 6.91149C7.10422 6.89083 7.32862 6.7278 7.42787 6.48918L9.36416 1.83368Z" fill="url(#paint0_linear_1_721)"/>
<defs>
<linearGradient id="paint0_linear_1_721" x1="1.18555" y1="1.40918" x2="18.8155" y2="1.40918" gradientUnits="userSpaceOnUse">
<stop offset="0.4999" stop-color="#F3C63F"/>
<stop offset="0.5" stop-color="#F3C63F"/>
</linearGradient>
</defs>
</svg>
