<svg width="100" height="20" viewBox="0 0 100 20" fill="none" xmlns="http://www.w3.org/2000/svg">
<path d="M9.36416 1.83362C9.59958 1.26761 10.4014 1.26762 10.6368 1.83363L12.5732 6.48912C12.6724 6.72774 12.8968 6.89077 13.1544 6.91143L18.1804 7.31435C18.7915 7.36335 19.0392 8.12591 18.5737 8.52469L14.7444 11.8049C14.5482 11.973 14.4624 12.2369 14.5224 12.4882L15.6923 17.3927C15.8346 17.989 15.1858 18.4603 14.6627 18.1408L10.3597 15.5125C10.1392 15.3779 9.86183 15.3779 9.64133 15.5125L5.33833 18.1408C4.81519 18.4603 4.1665 17.989 4.30874 17.3927L5.47865 12.4882C5.53861 12.2369 5.4529 11.973 5.25663 11.8049L1.42735 8.52469C0.961789 8.12591 1.20956 7.36335 1.82062 7.31435L6.84662 6.91143C7.10422 6.89077 7.32862 6.72774 7.42787 6.48912L9.36416 1.83362Z" fill="url(#paint0_linear_1_1094)"/>
<path d="M29.3642 1.83362C29.5996 1.26761 30.4014 1.26762 30.6368 1.83363L32.5732 6.48912C32.6724 6.72774 32.8968 6.89077 33.1544 6.91143L38.1804 7.31435C38.7915 7.36335 39.0392 8.12591 38.5737 8.52469L34.7444 11.8049C34.5482 11.973 34.4624 12.2369 34.5224 12.4882L35.6923 17.3927C35.8346 17.989 35.1858 18.4603 34.6627 18.1408L30.3597 15.5125C30.1392 15.3779 29.8618 15.3779 29.6413 15.5125L25.3383 18.1408C24.8152 18.4603 24.1665 17.989 24.3087 17.3927L25.4786 12.4882C25.5386 12.2369 25.4529 11.973 25.2566 11.8049L21.4273 8.52469C20.9618 8.12591 21.2096 7.36335 21.8206 7.31435L26.8466 6.91143C27.1042 6.89077 27.3286 6.72774 27.4279 6.48912L29.3642 1.83362Z" fill="url(#paint1_linear_1_1094)"/>
<path d="M49.3642 1.83362C49.5996 1.26761 50.4014 1.26762 50.6368 1.83363L52.5732 6.48912C52.6724 6.72774 52.8968 6.89077 53.1544 6.91143L58.1804 7.31435C58.7915 7.36335 59.0392 8.12591 58.5737 8.52469L54.7444 11.8049C54.5482 11.973 54.4624 12.2369 54.5224 12.4882L55.6923 17.3927C55.8346 17.989 55.1858 18.4603 54.6627 18.1408L50.3597 15.5125C50.1392 15.3779 49.8618 15.3779 49.6413 15.5125L45.3383 18.1408C44.8152 18.4603 44.1665 17.989 44.3087 17.3927L45.4786 12.4882C45.5386 12.2369 45.4529 11.973 45.2566 11.8049L41.4273 8.52469C40.9618 8.12591 41.2096 7.36335 41.8206 7.31435L46.8466 6.91143C47.1042 6.89077 47.3286 6.72774 47.4279 6.48912L49.3642 1.83362Z" fill="url(#paint2_linear_1_1094)"/>
<path d="M69.3642 1.83362C69.5996 1.26761 70.4014 1.26762 70.6368 1.83363L72.5732 6.48912C72.6724 6.72774 72.8968 6.89077 73.1544 6.91143L78.1804 7.31435C78.7915 7.36335 79.0392 8.12591 78.5737 8.52469L74.7444 11.8049C74.5482 11.973 74.4624 12.2369 74.5224 12.4882L75.6923 17.3927C75.8346 17.989 75.1858 18.4603 74.6627 18.1408L70.3597 15.5125C70.1392 15.3779 69.8618 15.3779 69.6413 15.5125L65.3383 18.1408C64.8152 18.4603 64.1665 17.989 64.3087 17.3927L65.4786 12.4882C65.5386 12.2369 65.4529 11.973 65.2566 11.8049L61.4273 8.52469C60.9618 8.12591 61.2096 7.36335 61.8206 7.31435L66.8466 6.91143C67.1042 6.89077 67.3286 6.72774 67.4279 6.48912L69.3642 1.83362Z" fill="url(#paint3_linear_1_1094)"/>
<path d="M89.3642 1.83362C89.5996 1.26761 90.4014 1.26762 90.6368 1.83363L92.5732 6.48912C92.6724 6.72774 92.8968 6.89077 93.1544 6.91143L98.1804 7.31435C98.7915 7.36335 99.0392 8.12591 98.5737 8.52469L94.7444 11.8049C94.5482 11.973 94.4624 12.2369 94.5224 12.4882L95.6923 17.3927C95.8346 17.989 95.1858 18.4603 94.6627 18.1408L90.3597 15.5125C90.1392 15.3779 89.8618 15.3779 89.6413 15.5125L85.3383 18.1408C84.8152 18.4603 84.1665 17.989 84.3087 17.3927L85.4786 12.4882C85.5386 12.2369 85.4529 11.973 85.2566 11.8049L81.4273 8.52469C80.9618 8.12591 81.2096 7.36335 81.8206 7.31435L86.8466 6.91143C87.1042 6.89077 87.3286 6.72774 87.4279 6.48912L89.3642 1.83362Z" fill="url(#paint4_linear_1_1094)"/>
<defs>
<linearGradient id="paint0_linear_1_1094" x1="1.18555" y1="1.40912" x2="18.8155" y2="1.40912" gradientUnits="userSpaceOnUse">
<stop offset="0.4999" stop-color="#F3C63F"/>
<stop offset="0.5" stop-color="#F3C63F"/>
</linearGradient>
<linearGradient id="paint1_linear_1_1094" x1="21.1855" y1="1.40912" x2="38.8155" y2="1.40912" gradientUnits="userSpaceOnUse">
<stop offset="0.4999" stop-color="#F3C63F"/>
<stop offset="0.5" stop-color="#F3C63F"/>
</linearGradient>
<linearGradient id="paint2_linear_1_1094" x1="41.1855" y1="1.40912" x2="58.8155" y2="1.40912" gradientUnits="userSpaceOnUse">
<stop offset="0.4999" stop-color="#F3C63F"/>
<stop offset="0.5" stop-color="#F3C63F"/>
</linearGradient>
<linearGradient id="paint3_linear_1_1094" x1="61.1855" y1="1.40912" x2="78.8155" y2="1.40912" gradientUnits="userSpaceOnUse">
<stop offset="0.4999" stop-color="#F3C63F"/>
<stop offset="0.5" stop-color="#F3C63F"/>
</linearGradient>
<linearGradient id="paint4_linear_1_1094" x1="81.1855" y1="1.40912" x2="98.8155" y2="1.40912" gradientUnits="userSpaceOnUse">
<stop offset="0.4999" stop-color="#DEE1E6"/>
<stop offset="0.5" stop-color="#DEE1E6"/>
</linearGradient>
</defs>
</svg>
