<svg width="19" height="18" viewBox="0 0 19 18" fill="none" xmlns="http://www.w3.org/2000/svg">
<path d="M9.11416 0.833682C9.34958 0.267673 10.1514 0.267682 10.3868 0.83369L12.3232 5.48918C12.4224 5.7278 12.6468 5.89083 12.9044 5.91149L17.9304 6.31441C18.5415 6.36341 18.7892 7.12597 18.3237 7.52475L14.4944 10.805C14.2982 10.9731 14.2124 11.2369 14.2724 11.4882L15.4423 16.3927C15.5846 16.9891 14.9358 17.4603 14.4127 17.1408L10.1097 14.5126C9.88925 14.3779 9.61183 14.3779 9.39133 14.5126L5.08833 17.1408C4.56519 17.4603 3.9165 16.9891 4.05874 16.3927L5.22865 11.4882C5.28861 11.2369 5.2029 10.9731 5.00663 10.805L1.17735 7.52475C0.711789 7.12597 0.959564 6.36341 1.57062 6.31441L6.59662 5.91149C6.85422 5.89083 7.07862 5.7278 7.17787 5.48918L9.11416 0.833682Z" fill="url(#paint0_linear_1_965)"/>
<defs>
<linearGradient id="paint0_linear_1_965" x1="0.935547" y1="0.40918" x2="18.5655" y2="0.40918" gradientUnits="userSpaceOnUse">
<stop offset="0.4999" stop-color="#F3C63F"/>
<stop offset="0.5" stop-color="#F3C63F"/>
</linearGradient>
</defs>
</svg>
