<svg width="18" height="18" viewBox="0 0 18 18" fill="none" xmlns="http://www.w3.org/2000/svg">
<path d="M8.36416 0.833682C8.59958 0.267673 9.40141 0.267682 9.63683 0.83369L11.5732 5.48918C11.6724 5.7278 11.8968 5.89083 12.1544 5.91149L17.1804 6.31441C17.7915 6.36341 18.0392 7.12597 17.5737 7.52475L13.7444 10.805C13.5482 10.9731 13.4624 11.2369 13.5224 11.4882L14.6923 16.3927C14.8346 16.9891 14.1858 17.4603 13.6627 17.1408L9.35975 14.5126C9.13925 14.3779 8.86183 14.3779 8.64133 14.5126L4.33833 17.1408C3.81519 17.4603 3.1665 16.9891 3.30874 16.3927L4.47865 11.4882C4.53861 11.2369 4.4529 10.9731 4.25663 10.805L0.427347 7.52475C-0.0382113 7.12597 0.209564 6.36341 0.820622 6.31441L5.84662 5.91149C6.10422 5.89083 6.32862 5.7278 6.42787 5.48918L8.36416 0.833682Z" fill="url(#paint0_linear_1_974)"/>
<defs>
<linearGradient id="paint0_linear_1_974" x1="0.185547" y1="0.40918" x2="17.8155" y2="0.40918" gradientUnits="userSpaceOnUse">
<stop offset="0.4999" stop-color="#DEE1E6"/>
<stop offset="0.5" stop-color="#DEE1E6"/>
</linearGradient>
</defs>
</svg>
