<svg width="19" height="18" viewBox="0 0 19 18" fill="none" xmlns="http://www.w3.org/2000/svg">
<path d="M8.61416 0.833682C8.84958 0.267673 9.65141 0.267682 9.88683 0.83369L11.8232 5.48918C11.9224 5.7278 12.1468 5.89083 12.4044 5.91149L17.4304 6.31441C18.0415 6.36341 18.2892 7.12597 17.8237 7.52475L13.9944 10.805C13.7982 10.9731 13.7124 11.2369 13.7724 11.4882L14.9423 16.3927C15.0846 16.9891 14.4358 17.4603 13.9127 17.1408L9.60975 14.5126C9.38925 14.3779 9.11183 14.3779 8.89133 14.5126L4.58833 17.1408C4.06519 17.4603 3.4165 16.9891 3.55874 16.3927L4.72865 11.4882C4.78861 11.2369 4.7029 10.9731 4.50663 10.805L0.677347 7.52475C0.211789 7.12597 0.459564 6.36341 1.07062 6.31441L6.09662 5.91149C6.35422 5.89083 6.57862 5.7278 6.67787 5.48918L8.61416 0.833682Z" fill="url(#paint0_linear_1_971)"/>
<defs>
<linearGradient id="paint0_linear_1_971" x1="0.435547" y1="0.40918" x2="18.0655" y2="0.40918" gradientUnits="userSpaceOnUse">
<stop offset="0.4999" stop-color="#DEE1E6"/>
<stop offset="0.5" stop-color="#DEE1E6"/>
</linearGradient>
</defs>
</svg>
