<svg width="19" height="18" viewBox="0 0 19 18" fill="none" xmlns="http://www.w3.org/2000/svg">
<path d="M8.86416 0.833682C9.09958 0.267673 9.90141 0.267682 10.1368 0.83369L12.0732 5.48918C12.1724 5.7278 12.3968 5.89083 12.6544 5.91149L17.6804 6.31441C18.2915 6.36341 18.5392 7.12597 18.0737 7.52475L14.2444 10.805C14.0482 10.9731 13.9624 11.2369 14.0224 11.4882L15.1923 16.3927C15.3346 16.9891 14.6858 17.4603 14.1627 17.1408L9.85975 14.5126C9.63925 14.3779 9.36183 14.3779 9.14133 14.5126L4.83833 17.1408C4.31519 17.4603 3.6665 16.9891 3.80874 16.3927L4.97865 11.4882C5.03861 11.2369 4.9529 10.9731 4.75663 10.805L0.927347 7.52475C0.461789 7.12597 0.709564 6.36341 1.32062 6.31441L6.34662 5.91149C6.60422 5.89083 6.82862 5.7278 6.92787 5.48918L8.86416 0.833682Z" fill="url(#paint0_linear_1_968)"/>
<defs>
<linearGradient id="paint0_linear_1_968" x1="0.685547" y1="0.40918" x2="18.3155" y2="0.40918" gradientUnits="userSpaceOnUse">
<stop offset="0.4999" stop-color="#F3C63F"/>
<stop offset="0.5" stop-color="#F3C63F"/>
</linearGradient>
</defs>
</svg>
