<svg width="18" height="18" viewBox="0 0 18 18" fill="none" xmlns="http://www.w3.org/2000/svg">
<path d="M8.17862 0.833682C8.41403 0.267673 9.21587 0.267682 9.45128 0.83369L11.3876 5.48918C11.4869 5.7278 11.7113 5.89083 11.9689 5.91149L16.9949 6.31441C17.6059 6.36341 17.8537 7.12597 17.3881 7.52475L13.5589 10.805C13.3626 10.9731 13.2769 11.2369 13.3369 11.4882L14.5068 16.3927C14.649 16.9891 14.0003 17.4603 13.4772 17.1408L9.1742 14.5126C8.9537 14.3779 8.67628 14.3779 8.45578 14.5126L4.15278 17.1408C3.62964 17.4603 2.98096 16.9891 3.12319 16.3927L4.2931 11.4882C4.35307 11.2369 4.26735 10.9731 4.07108 10.805L0.2418 7.52475C-0.223758 7.12597 0.0240167 6.36341 0.635075 6.31441L5.66107 5.91149C5.91867 5.89083 6.14307 5.7278 6.24232 5.48918L8.17862 0.833682Z" fill="url(#paint0_linear_1_930)"/>
<defs>
<linearGradient id="paint0_linear_1_930" x1="0" y1="0.40918" x2="17.6299" y2="0.40918" gradientUnits="userSpaceOnUse">
<stop offset="0.4999" stop-color="#F3C63F"/>
<stop offset="0.5" stop-color="#F3C63F"/>
</linearGradient>
</defs>
</svg>
